<svg version="1.1" id="Layer_1" xmlns="http://www.w3.org/2000/svg" xmlns:xlink="http://www.w3.org/1999/xlink" x="0px" y="0px" viewBox="0 0 24 24" style="enable-background:new 0 0 24 24;" xml:space="preserve">
										<style type="text/css">
											.st0{fill:none;}
											.st1{fill:#FFFFFF;}
										</style>
    <path class="st0" d="M-1-1.8H25v26.1H-1V-1.8z"></path>
    <path class="st1" d="M21.8,2.8H2.3c-1.2,0-2.2,1-2.2,2.2v14.1c0,1.2,1,2.2,2.2,2.2h19.6c1.2,0,2.2-1,2.2-2.2V4.9
															 C24,3.7,23,2.8,21.8,2.8z M2.3,19.1V4.9H11v14.1H2.3z M21.8,19.1h-8.7V4.9h8.7V19.1z M14.2,8.7h6.5v1.6h-6.5V8.7z M14.2,11.5h6.5
															 v1.6h-6.5V11.5z M14.2,14.2h6.5v1.6h-6.5V14.2z"></path>
									</svg>
