<svg xmlns="http://www.w3.org/2000/svg" viewBox="0 0 52 52"><path d="M48.75 27.625v8.125H3.25v-4.875h24.375v-3.25H9.75V9.75h14.625V6.5H8.125c-.897 0-1.625.728-1.625 1.625v19.5H3.25V4.875c0-.897.728-1.625 1.625-1.625h22.75V0H4.875A4.875 4.875 0 0 0 0 4.875v32.5C0 38.272.728 39 1.625 39h14.381l-1.154 8.125H13c-.897 0-1.625.728-1.625 1.625h-3.25V52h35.75v-3.25h-3.25c0-.897-.728-1.625-1.625-1.625h-1.836L36.01 39h14.365c.897 0 1.625-.728 1.625-1.625v-9.75zm-14.869 19.5H18.119L19.272 39h13.439z"/><path d="M25.978 14.889H21v3.222h4.978a9.667 9.667 0 0 0 7.91 7.91V31h3.223v-4.978a9.667 9.667 0 0 0 7.91-7.911H50v-3.222h-4.978a9.668 9.668 0 0 0-7.911-7.91v-4.98h-3.222v4.98a9.668 9.668 0 0 0-7.911 7.91zm9.522-4.833a6.444 6.444 0 1 1 0 12.889 6.444 6.444 0 0 1 0-12.889z"/><path d="M34 15h3v3h-3z"/></svg>