<svg xmlns="http://www.w3.org/2000/svg" viewBox="0 0 37 37"><path d="M2.13 30.63C.71 28.72 0 26.23 0 23.17c0-4.115 1.02-7.919 3.06-11.411 2.04-3.493 5.099-6.244 9.178-8.254l3.985 3.589c-3.32 1.148-6.048 3.206-8.183 6.172s-3.107 5.837-2.917 8.612l.427.144c.57-.861 1.66-1.292 3.273-1.292 1.423 0 2.704.574 3.842 1.723s1.708 2.679 1.708 4.593c0 1.722-.617 3.23-1.85 4.521-1.233 1.292-2.751 1.938-4.554 1.938-2.466 0-4.411-.957-5.834-2.87zm20.777 0c-1.423-1.914-2.135-4.402-2.135-7.464 0-4.115 1.02-7.919 3.06-11.411 2.04-3.493 5.1-6.244 9.179-8.254L37 7.091c-3.32 1.149-6.048 3.206-8.183 6.172s-3.107 5.838-2.917 8.613l.427.143c.569-.86 1.66-1.291 3.273-1.291 1.423 0 2.704.574 3.842 1.722s1.708 2.68 1.708 4.593c0 1.723-.617 3.23-1.85 4.522-1.233 1.292-2.751 1.938-4.554 1.938-2.467 0-4.411-.957-5.835-2.871z"/></svg>