<svg viewBox="0 0 63 51" xmlns="http://www.w3.org/2000/svg"><g fill="#00477F" fill-rule="nonzero"><path d="M32.118 30.588V19.805c9.501-.802 16.81-8.74 16.823-18.276V0h-1.53a18.366 18.366 0 0 0-17.156 11.894 12.226 12.226 0 0 0-10.373-5.776h-1.53v1.53A12.246 12.246 0 0 0 29.06 19.775v10.812H0v3.06h28.425l-8.86 8.859 2.163 2.163 7.33-7.331v7.91l-3.375 3.375 2.163 2.163 2.742-2.742 2.742 2.742 2.163-2.162-3.375-3.376v-8.466l7.887 7.887 2.163-2.163-8.86-8.86h29.398v-3.059H32.118zm13.68-27.445A15.323 15.323 0 0 1 32.202 16.74 15.323 15.323 0 0 1 45.797 3.143zm-24.23 6.188a9.202 9.202 0 0 1 7.336 7.338 9.202 9.202 0 0 1-7.337-7.338z"/><path d="M45.882 36.706h12.235v3.059H45.882zM53.529 42.824h7.647v3.059h-7.647zM9.176 36.706h6.118v3.059H9.176zM6.118 42.824h10.706v3.059H6.118z"/></g></svg>