<svg viewBox="0 0 50 50" xmlns="http://www.w3.org/2000/svg"><path d="M46.875 7.813H35.937V3.125C35.938 1.399 34.538 0 32.813 0H17.187a3.125 3.125 0 0 0-3.125 3.125v4.688H3.126A3.125 3.125 0 0 0 0 10.938v15.624c0 1.726 1.4 3.125 3.125 3.125v18.75c0 .863.7 1.563 1.563 1.563h40.624c.863 0 1.563-.7 1.563-1.563v-18.75c1.726 0 3.125-1.399 3.125-3.125V10.938c0-1.725-1.4-3.124-3.125-3.124zM17.187 3.125h15.625v4.688H17.188V3.125zm26.563 43.75H6.25V29.687h12.5v1.563c0 .863.7 1.563 1.563 1.563h9.375c.862 0 1.562-.7 1.562-1.563v-1.563h12.5v17.188zM21.875 29.687v-3.125h6.25v3.125h-6.25zm25-3.125H31.25V25c0-.863-.7-1.563-1.563-1.563h-9.375c-.862 0-1.562.7-1.562 1.563v1.563H3.125V10.938h43.75v15.624z" fill="#00477F" fill-rule="nonzero"/></svg>