<svg xmlns="http://www.w3.org/2000/svg" viewBox="0 0 27 27"><path d="M9.5 6h-5l5-5zm2 14a34.56 34.56 0 0 1 4-1.069A18.36 18.36 0 0 1 13.146 16a34.556 34.556 0 0 1-1.646 4zm1.355-9c-.017.003-.041.006-.075.016a.278.278 0 0 0-.19.15c-.201.371-.043 1.077.266 1.834.254-1.306.118-1.861 0-2z"/><path d="M11.193 0v7.45H3.5V27h20V0zm8.689 20.079c-.323.436-.765.666-1.283.666-.702 0-1.518-.43-2.431-1.278a28.218 28.218 0 0 0-5.096 1.58c-.484.99-.946 1.79-1.376 2.375-.592.804-1.101 1.178-1.607 1.178a.946.946 0 0 1-.558-.182c-.602-.436-.683-.923-.645-1.254.105-.911 1.268-1.862 3.457-2.833.867-1.843 1.694-4.114 2.186-6.011-.576-1.214-1.136-2.79-.728-3.714.143-.324.395-.552.726-.66a1.28 1.28 0 0 1 .383-.064c.292 0 .552.124.733.347.17.21.684.844-.089 3.99.78 1.558 1.881 3.143 2.938 4.229.757-.134 1.408-.2 1.938-.2.906 0 1.452.204 1.677.624.185.347.11.754-.226 1.207z"/><path d="M8.503 22.597c-.006.053-.025.194.28.403.097-.027.662-.258 1.717-2-1.391.699-1.957 1.273-1.997 1.597zm8.997-3.478c.518.568.976.881 1.314.881.15 0 .345-.05.542-.443.095-.189.131-.312.144-.377-.076-.058-.305-.18-.871-.18-.321 0-.702.039-1.129.119z"/></svg>