<svg viewBox="0 0 49 52" xmlns="http://www.w3.org/2000/svg"><g fill="#00477F" fill-rule="nonzero"><path d="M20.222 17.333h2.889v26h-2.889zM26 17.333h2.889v26H26zM5.778 49.111h37.556V52H5.778zM5.778 0h37.556v2.889H5.778z"/><path d="M13 15.889v28.889H8.667v2.889h31.777v-2.89h-4.333V13H13v2.889zm20.222 0v28.889H15.89v-28.89h17.333zM13 8.667h23.111v2.889H13z"/><path d="M41.555 4.333H7.557a7.07 7.07 0 0 0-7.062 7.062 5.946 5.946 0 0 0 5.939 5.938 5.045 5.045 0 0 0 5.04-5.039 4.325 4.325 0 0 0-4.32-4.32v2.888c.79.001 1.43.642 1.43 1.432a2.153 2.153 0 0 1-2.15 2.15 3.053 3.053 0 0 1-3.05-3.05 4.177 4.177 0 0 1 4.173-4.172h33.998a4.177 4.177 0 0 1 4.172 4.173 3.053 3.053 0 0 1-3.05 3.05 2.153 2.153 0 0 1-2.15-2.151c0-.79.64-1.43 1.431-1.432V7.973a4.325 4.325 0 0 0-4.32 4.321 5.045 5.045 0 0 0 5.04 5.04 5.946 5.946 0 0 0 5.938-5.94 7.07 7.07 0 0 0-7.061-7.06z"/></g></svg>