<svg viewBox="0 0 47 53" xmlns="http://www.w3.org/2000/svg"><g fill="#00477F" fill-rule="nonzero"><path d="M16.794 36.136a7.212 7.212 0 0 1-7.19-7.202v-3.639H5.106L9.604 17.8v-2.14h-2.41v1.472l-4.547 7.58a1.976 1.976 0 0 0 1.694 2.993h2.854v1.229a9.625 9.625 0 0 0 9.595 9.611 1.188 1.188 0 0 1 1.246 1.147v.197a3.478 3.478 0 0 1-3.474 3.475H8.83c-4.72 0-6.887.347-8.831 8.586l2.344.552c1.588-6.73 2.529-6.73 6.487-6.73h5.73a5.89 5.89 0 0 0 5.884-5.883v-.197a3.57 3.57 0 0 0-3.65-3.556zM37.512 43.364h-3.924a3.478 3.478 0 0 1-3.474-3.475v-1.882a12.998 12.998 0 0 0 3.613-9.01V15.658h-2.409v13.337a10.625 10.625 0 0 1-3.25 7.654l-.363.356v2.883a5.89 5.89 0 0 0 5.883 5.884h3.924c3.962 0 4.904 0 6.487 6.554l2.342-.567c-1.947-8.056-4.114-8.396-8.829-8.396zM20.477 7.227a8.442 8.442 0 0 0-8.432 8.432h2.41a6.023 6.023 0 1 1 12.045 0h2.41a8.442 8.442 0 0 0-8.433-8.432z"/><path d="M20.767 10.84a3.948 3.948 0 0 0-3.903 3.985h2.409a1.496 1.496 0 1 1 2.987 0h2.41a3.948 3.948 0 0 0-3.903-3.984zM19.273 0h2.409v4.818h-2.409zM28.91 7.373l3.759-3.76 1.703 1.704-3.76 3.76zM8.432 5.317l1.703-1.703 3.76 3.76-1.703 1.703z"/></g></svg>