<svg xmlns="http://www.w3.org/2000/svg" viewBox="0 0 748.15 14.148"><path d="M4.896 5.508v1.08c.99-.918 2.466-2.466 3.888-4.068.594-.684.936-1.188.936-1.476 0-.198-.072-.306-.504-.396C9.054.63 8.91.594 8.91.468c0-.09.09-.162.288-.162.81 0 .882.036 1.908.036 1.044 0 2.358-.036 2.592-.036.306 0 .378.036.378.162 0 .09-.09.162-.324.18-.27.036-.432.054-.648.108-.882.18-1.458.72-2.322 1.548-.828.792-2.862 2.898-3.33 3.402.702 1.098 3.672 4.698 4.878 5.958 1.08 1.098 1.566 1.494 1.89 1.638s.54.198.828.234c.252.018.378.054.378.198s-.162.162-.36.162h-1.764c-2.376 0-3.204-.234-4.122-1.242-.99-1.08-2.952-3.6-4.284-5.562v1.584c0 1.404.018 3.042.09 3.798.036.45.162.9.774.99.252.036.54.054.774.072.216 0 .306.09.306.18s-.072.18-.342.18c-1.188 0-3.114-.054-3.276-.054-.09 0-2.142.054-2.736.054-.234 0-.36-.036-.36-.18 0-.126.126-.18.324-.18.18-.018.36-.018.558-.054.558-.09.612-.522.666-1.044.072-.756.108-2.016.108-3.762V5.508c0-2.79 0-3.294-.054-3.87-.036-.504-.234-.828-.666-.918C.792.666.558.666.378.648.144.648 0 .612 0 .45 0 .342.144.288.486.288c.774 0 2.61.054 2.736.054.162 0 2.34-.054 2.988-.054.306 0 .378.072.378.162 0 .126-.09.18-.324.198-.162.018-.27.018-.54.054-.63.09-.738.504-.774 1.08s-.054.936-.054 3.726zm15.57 3.168V5.508c0-2.934-.018-3.294-.054-3.87-.036-.522-.198-.828-.648-.936-.162-.036-.414-.036-.594-.054-.234-.018-.324-.09-.324-.198s.108-.162.396-.162c1.026 0 1.89.054 2.682.054.378 0 4.788-.018 5.076-.018.36 0 .792-.036.972-.072.126-.036.216-.072.288-.072.09 0 .108.072.108.162s-.036.27-.09.792c-.054.36-.09.99-.144 1.926 0 .144-.072.252-.18.252-.09 0-.162-.09-.18-.252 0-.198-.018-.378-.09-.63-.09-.414-.324-.648-1.188-.72-.594-.054-2.16-.09-2.7-.09-.108 0-.144.054-.144.18v3.96c0 .126.018.216.144.216.504.018 1.962 0 2.61-.018.882-.036 1.116-.09 1.314-.414.108-.162.162-.234.252-.234.108 0 .108.108.108.216 0 .18-.09.828-.144 1.53-.018.414-.018 1.296-.018 1.494 0 .234-.054.342-.162.342-.126 0-.162-.126-.198-.288l-.054-.414c-.072-.522-.324-.828-1.206-.882a57.27 57.27 0 0 0-2.538-.072c-.09 0-.108.09-.108.234v1.242c0 .612-.018 1.674 0 2.358.018 1.26.27 1.548 2.268 1.548.468 0 1.17-.018 1.674-.216s.72-.594.882-1.422c.036-.216.108-.324.216-.324.144 0 .162.18.162.396 0 .702-.198 2.07-.288 2.412-.126.468-.252.486-.918.486-2.484 0-3.834-.108-5.724-.108-.846 0-1.602.054-2.592.054-.324 0-.432-.054-.432-.18 0-.09.09-.18.36-.18.216-.018.396-.036.54-.072.504-.072.576-.756.612-1.89.036-.72.054-1.782.054-2.898zm15.12 2.574c.09-3.708.054-8.046.162-10.368.018-.54.09-.864.306-.864.144 0 .234.054.702.432.756.63 1.692 1.53 5.814 5.31 1.836 1.692 3.078 2.898 3.564 3.33l-.108-6.75C45.99 1.332 45.9.864 45.18.738c-.252-.054-.54-.072-.792-.09-.234 0-.324-.09-.324-.18 0-.126.162-.18.36-.18.72 0 1.89.054 2.61.054.396 0 1.296-.054 2.052-.054.27 0 .396.054.396.162 0 .09-.09.198-.306.198-.234.018-.324.018-.45.054-.594.072-.774.378-.828 1.494-.144 3.618-.144 7.218-.216 10.836 0 .918-.126 1.116-.36 1.116-.288 0-.846-.432-2.016-1.458a310.92 310.92 0 0 1-3.888-3.492 205.35 205.35 0 0 1-4.122-3.888l.18 6.138c.036 1.296.108 1.782.612 1.962.27.09.594.09.954.126.27.018.36.072.36.18 0 .144-.144.18-.432.18-.63 0-1.206-.036-2.322-.054-.414 0-1.746.054-2.448.054-.252 0-.396-.036-.396-.18 0-.108.09-.18.342-.18.162-.018.396-.018.594-.054.702-.108.792-.558.846-2.232zM62.01 1.62v7.056c0 1.404 0 3.078.09 3.834.036.468.162.846.702.936.234.036.45.054.774.09.288.018.36.072.36.198 0 .108-.09.162-.414.162-1.224 0-2.97-.054-3.258-.054-.306 0-2.052.054-2.646.054-.288 0-.414-.036-.414-.18 0-.126.144-.18.36-.18.18-.018.378-.036.576-.072.396-.072.522-.468.576-.99.072-.756.108-2.052.108-3.798V1.62c-.702 0-1.818-.018-2.718.036-1.008.054-1.404.288-1.638.918-.09.198-.126.306-.162.414-.036.144-.09.288-.216.288-.162 0-.162-.144-.144-.36.072-.738.27-1.71.396-2.394.036-.27.09-.45.198-.45.126 0 .198.054.612.144.324.072 1.314.126 1.998.126h7.83A7.48 7.48 0 0 0 66.114.27c.288-.054.432-.108.558-.108.162 0 .18.108.18.558 0 .252-.108 1.926-.126 2.376-.018.252-.072.36-.18.36-.144 0-.18-.108-.198-.324-.018-.198-.018-.27-.036-.36-.072-.558-.342-.99-1.404-1.062-.594-.054-1.53-.09-2.898-.09zm14.562 3.888v2.7c0 2.484.378 3.528 1.368 4.23.738.486 1.35.504 1.8.504.576 0 1.35-.126 1.98-.666 1.008-.864 1.008-2.754 1.008-4.608v-2.16c0-2.646 0-3.114-.036-3.69-.036-.684-.18-.99-.774-1.098-.198-.036-.306-.036-.666-.072-.234 0-.324-.072-.324-.18s.09-.18.414-.18c1.026 0 2.124.054 2.412.054.324 0 1.494-.054 2.376-.054.27 0 .378.054.378.18 0 .09-.072.162-.306.18-.198.018-.306.018-.558.072-.486.09-.63.36-.684 1.098-.036.576-.054 1.044-.054 3.69v1.764c0 2.052-.09 4.266-1.836 5.688-1.116.936-2.52 1.188-3.744 1.188-1.584 0-3.168-.234-4.284-1.206-.954-.792-1.674-2.106-1.674-4.698V5.508c0-2.79 0-3.294-.054-3.87-.036-.504-.144-.738-.558-.864-.198-.072-.612-.108-.774-.126-.27-.018-.378-.09-.378-.198s.144-.162.486-.162c.774 0 2.592.054 2.754.054.144 0 2.286-.054 2.934-.054.306 0 .396.054.396.162 0 .144-.09.18-.324.198-.162.018-.414.036-.594.072-.504.108-.594.486-.63 1.062s-.054 1.422-.054 3.726zm23.616 8.64c-2.34 0-4.644-.396-6.534-1.98-1.764-1.512-2.268-3.366-2.268-5.292 0-1.224.414-3.456 2.232-4.986C95.164.576 96.964.036 99.574.036c1.026 0 1.854.108 2.556.216.81.126 1.242.216 1.782.234.198.018.198.126.198.234 0 .144-.054.576-.09 1.188-.036.594-.018 1.656-.054 2.106-.018.27-.054.432-.216.432-.144 0-.198-.126-.216-.378-.018-.396-.09-1.116-.684-1.764-.63-.666-1.89-1.134-3.636-1.134-1.062 0-1.944.252-2.646.864-1.098.954-1.584 2.628-1.584 4.554 0 3.708 2.016 6.192 5.04 6.192 1.476 0 2.394-.126 3.096-.918.252-.27.45-.666.594-1.206.09-.378.144-.504.288-.504.126 0 .144.18.144.324 0 .306-.216 1.872-.396 2.736-.036.27-.162.414-.468.522-.72.288-1.944.414-3.096.414zm14.076-8.64v1.08c.99-.918 2.466-2.466 3.888-4.068.594-.684.936-1.188.936-1.476 0-.198-.072-.306-.504-.396-.162-.018-.306-.054-.306-.18 0-.09.09-.162.288-.162.81 0 .882.036 1.908.036 1.044 0 2.358-.036 2.592-.036.306 0 .378.036.378.162 0 .09-.09.162-.324.18-.27.036-.432.054-.648.108-.882.18-1.458.72-2.322 1.548-.828.792-2.862 2.898-3.33 3.402.702 1.098 3.672 4.698 4.878 5.958 1.08 1.098 1.566 1.494 1.89 1.638s.54.198.828.234c.252.018.378.054.378.198s-.162.162-.36.162h-1.764c-2.376 0-3.204-.234-4.122-1.242-.99-1.08-2.952-3.6-4.284-5.562v1.584c0 1.404.018 3.042.09 3.798.036.45.162.9.774.99.252.036.54.054.774.072.216 0 .306.09.306.18s-.072.18-.342.18c-1.188 0-3.114-.054-3.276-.054-.09 0-2.142.054-2.736.054-.234 0-.36-.036-.36-.18 0-.126.126-.18.324-.18.18-.018.36-.018.558-.054.558-.09.612-.522.666-1.044.072-.756.108-2.016.108-3.762V5.508c0-2.79 0-3.294-.054-3.87-.036-.504-.234-.828-.666-.918-.27-.054-.504-.054-.684-.072-.234 0-.378-.036-.378-.198 0-.108.144-.162.486-.162.774 0 2.61.054 2.736.054.162 0 2.34-.054 2.988-.054.306 0 .378.072.378.162 0 .126-.09.18-.324.198-.162.018-.27.018-.54.054-.63.09-.738.504-.774 1.08s-.054.936-.054 3.726zm17.55 5.112V9.234c0-.972-.198-1.332-.504-1.926-.666-1.224-2.448-4.194-3.06-5.112-.684-1.044-.882-1.278-1.458-1.458a3.09 3.09 0 0 0-.468-.09c-.18-.018-.27-.09-.27-.198 0-.126.144-.162.36-.162.738 0 2.088.054 2.772.054.306 0 1.44-.054 2.574-.054.198 0 .342.036.342.144 0 .144-.09.18-.36.234-.486.054-.558.234-.558.378 0 .126.054.288.18.522.288.522 2.538 4.518 2.826 5.058 1.098-2.07 2.07-3.87 2.412-4.59.18-.378.288-.684.288-.918 0-.198-.108-.36-.648-.45-.162-.036-.306-.09-.306-.216 0-.108.108-.162.396-.162.738 0 1.35.054 2.034.054.252 0 1.728-.054 2.07-.054.216 0 .36.036.36.162 0 .144-.126.198-.36.198a3.04 3.04 0 0 0-.702.144c-.504.198-.684.504-1.008.918-.612.756-3.186 5.166-3.438 5.922a5.228 5.228 0 0 0-.288 1.71v1.278c0 .288 0 1.026.054 1.782.036.45.072.9.738 1.026.324.072.684.072.99.108.216.018.288.072.288.198 0 .09-.09.162-.36.162-1.296 0-2.79-.054-3.384-.054-.522 0-1.98.054-2.79.054-.252 0-.36-.072-.36-.198 0-.09.108-.162.324-.162.288-.036.468-.036.63-.09.468-.126.576-.45.612-.972.054-.756.072-1.566.072-1.854zm29.772 3.528c-2.34 0-4.644-.396-6.534-1.98-1.764-1.512-2.268-3.366-2.268-5.292 0-1.224.414-3.456 2.232-4.986 1.548-1.314 3.348-1.854 5.958-1.854 1.026 0 1.854.108 2.556.216.81.126 1.242.216 1.782.234.198.018.198.126.198.234 0 .144-.054.576-.09 1.188-.036.594-.018 1.656-.054 2.106-.018.27-.054.432-.216.432-.144 0-.198-.126-.216-.378-.018-.396-.09-1.116-.684-1.764-.63-.666-1.89-1.134-3.636-1.134-1.062 0-1.944.252-2.646.864-1.098.954-1.584 2.628-1.584 4.554 0 3.708 2.016 6.192 5.04 6.192 1.476 0 2.394-.126 3.096-.918.252-.27.45-.666.594-1.206.09-.378.144-.504.288-.504.126 0 .144.18.144.324 0 .306-.216 1.872-.396 2.736-.036.27-.162.414-.468.522-.72.288-1.944.414-3.096.414zm17.046 0c-5.31 0-7.578-3.816-7.578-7.002 0-3.6 2.412-7.11 7.704-7.11 4.572 0 7.434 3.06 7.434 6.714 0 4.194-2.844 7.398-7.56 7.398zm.54-1.152c1.116 0 3.42-.486 3.42-5.454 0-2.988-1.242-6.39-4.428-6.39-1.656 0-3.51.918-3.51 5.184 0 3.402 1.422 6.66 4.518 6.66zm27-12.294l1.476 10.872c.144 1.17.324 1.62.918 1.8.36.108.792.144 1.026.162.234 0 .342.054.342.18 0 .144-.144.18-.432.18-1.494 0-2.952 0-5.004-.108-.342-.018-.414-.126-.414-.216 0-.072.072-.144.198-.18.288-.108.306-.216.234-1.026l-.648-6.444-3.708 6.948c-.486.918-.594 1.026-.738 1.026-.198 0-.306-.18-.81-.972-.63-1.008-1.728-3.06-2.412-4.212-.306-.522-1.098-1.998-1.44-2.61l-.522 5.076c-.072.774-.072 1.17-.072 1.44 0 .522.18.738.63.828.27.054.432.072.666.09.27 0 .324.054.324.162 0 .144-.072.198-.36.198-.792 0-1.782-.054-2.322-.054-.558 0-1.404.054-2.07.054-.18 0-.396 0-.396-.18 0-.108.108-.18.36-.18.144-.018.342-.018.54-.054.522-.108.702-.522.882-1.71l1.638-11.07c.072-.54.198-.702.378-.702.198 0 .324.18.702.738l5.148 8.622 4.932-8.712c.288-.468.432-.648.612-.648s.288.252.342.702zm22.536 0l1.476 10.872c.144 1.17.324 1.62.918 1.8.36.108.792.144 1.026.162.234 0 .342.054.342.18 0 .144-.144.18-.432.18-1.494 0-2.952 0-5.004-.108-.342-.018-.414-.126-.414-.216 0-.072.072-.144.198-.18.288-.108.306-.216.234-1.026l-.648-6.444-3.708 6.948c-.486.918-.594 1.026-.738 1.026-.198 0-.306-.18-.81-.972-.63-1.008-1.728-3.06-2.412-4.212-.306-.522-1.098-1.998-1.44-2.61l-.522 5.076c-.072.774-.072 1.17-.072 1.44 0 .522.18.738.63.828.27.054.432.072.666.09.27 0 .324.054.324.162 0 .144-.072.198-.36.198-.792 0-1.782-.054-2.322-.054-.558 0-1.404.054-2.07.054-.18 0-.396 0-.396-.18 0-.108.108-.18.36-.18.144-.018.342-.018.54-.054.522-.108.702-.522.882-1.71l1.638-11.07c.072-.54.198-.702.378-.702.198 0 .324.18.702.738l5.148 8.622 4.932-8.712c.288-.468.432-.648.612-.648s.288.252.342.702zm11.988 4.806v2.7c0 2.484.378 3.528 1.368 4.23.738.486 1.35.504 1.8.504.576 0 1.35-.126 1.98-.666 1.008-.864 1.008-2.754 1.008-4.608v-2.16c0-2.646 0-3.114-.036-3.69-.036-.684-.18-.99-.774-1.098-.198-.036-.306-.036-.666-.072-.234 0-.324-.072-.324-.18s.09-.18.414-.18c1.026 0 2.124.054 2.412.054.324 0 1.494-.054 2.376-.054.27 0 .378.054.378.18 0 .09-.072.162-.306.18-.198.018-.306.018-.558.072-.486.09-.63.36-.684 1.098-.036.576-.054 1.044-.054 3.69v1.764c0 2.052-.09 4.266-1.836 5.688-1.116.936-2.52 1.188-3.744 1.188-1.584 0-3.168-.234-4.284-1.206-.954-.792-1.674-2.106-1.674-4.698V5.508c0-2.79 0-3.294-.054-3.87-.036-.504-.144-.738-.558-.864-.198-.072-.612-.108-.774-.126-.27-.018-.378-.09-.378-.198s.144-.162.486-.162c.774 0 2.592.054 2.754.054.144 0 2.286-.054 2.934-.054.306 0 .396.054.396.162 0 .144-.09.18-.324.198-.162.018-.414.036-.594.072-.504.108-.594.486-.63 1.062s-.054 1.422-.054 3.726zm16.146 5.742c.09-3.708.054-8.046.162-10.368.018-.54.09-.864.306-.864.144 0 .234.054.702.432.756.63 1.692 1.53 5.814 5.31 1.836 1.692 3.078 2.898 3.564 3.33l-.108-6.75c-.036-1.008-.126-1.476-.846-1.602-.252-.054-.54-.072-.792-.09-.234 0-.324-.09-.324-.18 0-.126.162-.18.36-.18.72 0 1.89.054 2.61.054.396 0 1.296-.054 2.052-.054.27 0 .396.054.396.162 0 .09-.09.198-.306.198-.234.018-.324.018-.45.054-.594.072-.774.378-.828 1.494-.144 3.618-.144 7.218-.216 10.836 0 .918-.126 1.116-.36 1.116-.288 0-.846-.432-2.016-1.458a310.92 310.92 0 0 1-3.888-3.492 205.35 205.35 0 0 1-4.122-3.888l.18 6.138c.036 1.296.108 1.782.612 1.962.27.09.594.09.954.126.27.018.36.072.36.18 0 .144-.144.18-.432.18-.63 0-1.206-.036-2.322-.054-.414 0-1.746.054-2.448.054-.252 0-.396-.036-.396-.18 0-.108.09-.18.342-.18.162-.018.396-.018.594-.054.702-.108.792-.558.846-2.232zm20.682-2.574V5.508c0-2.79 0-3.312-.054-3.888-.036-.504-.234-.828-.63-.9a3.023 3.023 0 0 0-.54-.072c-.216 0-.342-.072-.342-.198 0-.108.09-.162.396-.162.72 0 2.484.054 2.628.054.162 0 2.286-.054 2.934-.054.306 0 .396.072.396.18 0 .144-.162.18-.342.18-.18.018-.288.018-.522.054-.468.09-.648.324-.684.972-.054.576-.054 1.044-.054 3.834v3.168c0 1.422.018 3.096.09 3.852.036.468.144.792.684.918.234.054.558.072.792.09.306 0 .378.072.378.18 0 .09-.09.18-.378.18-1.224 0-3.15-.054-3.312-.054-.09 0-1.98.054-2.592.054-.288 0-.432-.036-.432-.18 0-.126.144-.18.36-.18.18-.018.36-.036.558-.072.378-.054.504-.45.558-.972.072-.756.108-2.052.108-3.816zm17.75-7.056v7.056c0 1.404 0 3.078.09 3.834.036.468.162.846.702.936.234.036.45.054.774.09.288.018.36.072.36.198 0 .108-.09.162-.414.162-1.224 0-2.97-.054-3.258-.054-.306 0-2.052.054-2.646.054-.288 0-.414-.036-.414-.18 0-.126.144-.18.36-.18.18-.018.378-.036.576-.072.396-.072.522-.468.576-.99.072-.756.108-2.052.108-3.798V1.62c-.702 0-1.818-.018-2.718.036-1.008.054-1.404.288-1.638.918-.09.198-.126.306-.162.414-.036.144-.09.288-.216.288-.162 0-.162-.144-.144-.36.072-.738.27-1.71.396-2.394.036-.27.09-.45.198-.45.126 0 .198.054.612.144.324.072 1.314.126 1.998.126h7.83a7.48 7.48 0 0 0 1.134-.072c.288-.054.432-.108.558-.108.162 0 .18.108.18.558 0 .252-.108 1.926-.126 2.376-.018.252-.072.36-.18.36-.144 0-.18-.108-.198-.324-.018-.198-.018-.27-.036-.36-.072-.558-.342-.99-1.404-1.062-.594-.054-1.53-.09-2.898-.09zm14.886 9V9.234c0-.972-.198-1.332-.504-1.926-.666-1.224-2.448-4.194-3.06-5.112-.684-1.044-.882-1.278-1.458-1.458a3.09 3.09 0 0 0-.468-.09c-.18-.018-.27-.09-.27-.198 0-.126.144-.162.36-.162.738 0 2.088.054 2.772.054.306 0 1.44-.054 2.574-.054.198 0 .342.036.342.144 0 .144-.09.18-.36.234-.486.054-.558.234-.558.378 0 .126.054.288.18.522.288.522 2.538 4.518 2.826 5.058 1.098-2.07 2.07-3.87 2.412-4.59.18-.378.288-.684.288-.918 0-.198-.108-.36-.648-.45-.162-.036-.306-.09-.306-.216 0-.108.108-.162.396-.162.738 0 1.35.054 2.034.054.252 0 1.728-.054 2.07-.054.216 0 .36.036.36.162 0 .144-.126.198-.36.198a3.04 3.04 0 0 0-.702.144c-.504.198-.684.504-1.008.918-.612.756-3.186 5.166-3.438 5.922a5.228 5.228 0 0 0-.288 1.71v1.278c0 .288 0 1.026.054 1.782.036.45.072.9.738 1.026.324.072.684.072.99.108.216.018.288.072.288.198 0 .09-.09.162-.36.162-1.296 0-2.79-.054-3.384-.054-.522 0-1.98.054-2.79.054-.252 0-.36-.072-.36-.198 0-.09.108-.162.324-.162.288-.036.468-.036.63-.09.468-.126.576-.45.612-.972.054-.756.072-1.566.072-1.854zm26.154 3.528c-4.086 0-5.184-2.412-5.184-4.104 0-1.98 1.458-3.186 3.042-3.942-.756-1.062-.846-1.944-.846-2.646 0-1.71 1.512-3.42 4.698-3.42 1.116 0 1.98.198 2.502.414.288.126.36.27.36.522 0 .396-.144 1.908-.198 2.466-.036.27-.108.36-.216.36s-.18-.108-.18-.36a2.397 2.397 0 0 0-.612-1.566 2.502 2.502 0 0 0-1.854-.828c-.684 0-1.584.324-1.584 1.656 0 1.44 1.116 2.592 2.718 4.41.486.558 2.718 2.736 2.88 2.898.504-.792.918-1.638.918-2.736 0-.468-.198-.72-.468-.864-.198-.126-.486-.18-.666-.198-.216-.054-.324-.108-.324-.216 0-.162.252-.162.396-.162.756 0 2.016.09 2.592.18.378.072.576.162.594.594.018 1.152-.792 2.898-2.052 4.23.846.756 1.926 1.602 2.394 1.908.648.432 1.08.666 1.728.72.288.036.36.108.36.234 0 .144-.144.198-.504.198-.234 0-2.808-.036-3.042-.036-1.62 0-2.376-.234-3.42-1.026-.882.684-2.124 1.314-4.032 1.314zm1.206-1.62c.792 0 1.458-.198 1.926-.486-1.728-1.62-3.15-3.186-4.608-4.986-.234.27-.504.864-.504 1.872 0 2.25 1.494 3.6 3.186 3.6zM367.04 1.62v7.056c0 1.404 0 3.078.09 3.834.036.468.162.846.702.936.234.036.45.054.774.09.288.018.36.072.36.198 0 .108-.09.162-.414.162-1.224 0-2.97-.054-3.258-.054-.306 0-2.052.054-2.646.054-.288 0-.414-.036-.414-.18 0-.126.144-.18.36-.18.18-.018.378-.036.576-.072.396-.072.522-.468.576-.99.072-.756.108-2.052.108-3.798V1.62c-.702 0-1.818-.018-2.718.036-1.008.054-1.404.288-1.638.918-.09.198-.126.306-.162.414-.036.144-.09.288-.216.288-.162 0-.162-.144-.144-.36.072-.738.27-1.71.396-2.394.036-.27.09-.45.198-.45.126 0 .198.054.612.144.324.072 1.314.126 1.998.126h7.83a7.48 7.48 0 0 0 1.13-.072c.288-.054.432-.108.558-.108.162 0 .18.108.18.558 0 .252-.108 1.926-.126 2.376-.018.252-.072.36-.18.36-.144 0-.18-.108-.198-.324-.018-.198-.018-.27-.036-.36-.072-.558-.342-.99-1.404-1.062-.594-.054-1.53-.09-2.898-.09zm11.322 7.056V5.508c0-2.934-.018-3.294-.054-3.87-.036-.522-.198-.828-.648-.936-.162-.036-.414-.036-.594-.054-.234-.018-.324-.09-.324-.198s.108-.162.396-.162c1.026 0 1.89.054 2.682.054.378 0 4.788-.018 5.076-.018.36 0 .792-.036.972-.072.126-.036.216-.072.288-.072.09 0 .108.072.108.162s-.036.27-.09.792c-.054.36-.09.99-.144 1.926 0 .144-.072.252-.18.252-.09 0-.162-.09-.18-.252 0-.198-.018-.378-.09-.63-.09-.414-.324-.648-1.188-.72-.594-.054-2.16-.09-2.7-.09-.108 0-.144.054-.144.18v3.96c0 .126.018.216.144.216.504.018 1.962 0 2.61-.018.882-.036 1.116-.09 1.314-.414.108-.162.162-.234.252-.234.108 0 .108.108.108.216 0 .18-.09.828-.144 1.53-.018.414-.018 1.296-.018 1.494 0 .234-.054.342-.162.342-.126 0-.162-.126-.198-.288l-.054-.414c-.072-.522-.324-.828-1.206-.882a57.27 57.27 0 0 0-2.538-.072c-.09 0-.108.09-.108.234v1.242c0 .612-.018 1.674 0 2.358.018 1.26.27 1.548 2.268 1.548.468 0 1.17-.018 1.674-.216s.72-.594.882-1.422c.036-.216.108-.324.216-.324.144 0 .162.18.162.396 0 .702-.198 2.07-.288 2.412-.126.468-.252.486-.918.486-2.484 0-3.834-.108-5.724-.108-.846 0-1.602.054-2.592.054-.324 0-.432-.054-.432-.18 0-.09.09-.18.36-.18.216-.018.396-.036.54-.072.504-.072.576-.756.612-1.89.036-.72.054-1.782.054-2.898zm22.752 5.472c-2.34 0-4.644-.396-6.534-1.98-1.764-1.512-2.268-3.366-2.268-5.292 0-1.224.414-3.456 2.232-4.986 1.548-1.314 3.348-1.854 5.958-1.854 1.026 0 1.854.108 2.556.216.81.126 1.242.216 1.782.234.198.018.198.126.198.234 0 .144-.054.576-.09 1.188-.036.594-.018 1.656-.054 2.106-.018.27-.054.432-.216.432-.144 0-.198-.126-.216-.378-.018-.396-.09-1.116-.684-1.764-.63-.666-1.89-1.134-3.636-1.134-1.062 0-1.944.252-2.646.864-1.098.954-1.584 2.628-1.584 4.554 0 3.708 2.016 6.192 5.04 6.192 1.476 0 2.394-.126 3.096-.918.252-.27.45-.666.594-1.206.09-.378.144-.504.288-.504.126 0 .144.18.144.324 0 .306-.216 1.872-.396 2.736-.036.27-.162.414-.468.522-.72.288-1.944.414-3.096.414zm14.256-8.316h5.616c.054 0 .108-.036.108-.126v-.378c0-2.79 0-3.096-.036-3.672-.036-.522-.18-.828-.774-.954-.144-.018-.414-.036-.63-.054-.252 0-.342-.108-.342-.18 0-.108.09-.18.36-.18 1.044 0 2.664.054 2.844.054.162 0 2.232-.054 3.006-.054.27 0 .36.072.36.18 0 .09-.09.18-.27.18-.306.036-.414.036-.63.072-.468.072-.612.378-.666.954-.036.576-.036 1.044-.036 3.834v3.168c0 1.71 0 3.042.09 3.798.054.594.198.9.738.99.252.036.612.054.792.072.216 0 .306.09.306.18 0 .126-.144.18-.36.18-1.242 0-3.06-.054-3.384-.054-.288 0-1.692.054-2.574.054-.324 0-.396-.09-.396-.198 0-.09.108-.162.342-.162.18-.018.396-.036.558-.072.432-.09.54-.432.594-1.008.072-.756.108-1.89.108-3.6V7.398c0-.072-.054-.108-.108-.108h-5.616c-.054 0-.108.018-.108.108V9.27c0 1.71.018 2.448.09 3.222.054.522.216.864.756.954.378.054.558.072.756.09.198 0 .342.054.342.18 0 .09-.09.18-.36.18-1.026 0-3.15-.054-3.33-.054-.162 0-2.052.054-2.628.054-.198 0-.396-.036-.396-.162s.072-.198.306-.198c.216-.018.324-.036.558-.072.432-.054.594-.522.63-1.062.054-.756.09-2.016.09-3.726V5.544c0-2.79-.018-3.204-.054-3.78-.036-.63-.234-.972-.864-1.062-.216-.036-.306-.036-.504-.054-.324-.018-.36-.108-.36-.198 0-.126.198-.162.396-.162 1.044 0 2.43.054 2.844.054.684 0 2.196-.054 2.97-.054.324 0 .378.072.378.18 0 .09-.108.18-.324.18-.216.018-.45.036-.63.072-.486.108-.576.522-.612 1.044-.054.576-.054 1.314-.054 3.564v.378c0 .09.054.126.108.126zm17.478 5.418c.09-3.708.054-8.046.162-10.368.018-.54.09-.864.306-.864.144 0 .234.054.702.432.756.63 1.692 1.53 5.814 5.31 1.836 1.692 3.078 2.898 3.564 3.33l-.108-6.75c-.036-1.008-.126-1.476-.846-1.602-.252-.054-.54-.072-.792-.09-.234 0-.324-.09-.324-.18 0-.126.162-.18.36-.18.72 0 1.89.054 2.61.054.396 0 1.296-.054 2.052-.054.27 0 .396.054.396.162 0 .09-.09.198-.306.198-.234.018-.324.018-.45.054-.594.072-.774.378-.828 1.494-.144 3.618-.144 7.218-.216 10.836 0 .918-.126 1.116-.36 1.116-.288 0-.846-.432-2.016-1.458a310.92 310.92 0 0 1-3.888-3.492 205.35 205.35 0 0 1-4.122-3.888l.18 6.138c.036 1.296.108 1.782.612 1.962.27.09.594.09.954.126.27.018.36.072.36.18 0 .144-.144.18-.432.18-.63 0-1.206-.036-2.322-.054-.414 0-1.746.054-2.448.054-.252 0-.396-.036-.396-.18 0-.108.09-.18.342-.18.162-.018.396-.018.594-.054.702-.108.792-.558.846-2.232zm20.682-2.574V5.508c0-2.79 0-3.312-.054-3.888-.036-.504-.234-.828-.63-.9a3.023 3.023 0 0 0-.54-.072c-.216 0-.342-.072-.342-.198 0-.108.09-.162.396-.162.72 0 2.484.054 2.628.054.162 0 2.286-.054 2.934-.054.306 0 .396.072.396.18 0 .144-.162.18-.342.18-.18.018-.288.018-.522.054-.468.09-.648.324-.684.972-.054.576-.054 1.044-.054 3.834v3.168c0 1.422.018 3.096.09 3.852.036.468.144.792.684.918.234.054.558.072.792.09.306 0 .378.072.378.18 0 .09-.09.18-.378.18-1.224 0-3.15-.054-3.312-.054-.09 0-1.98.054-2.592.054-.288 0-.432-.036-.432-.18 0-.126.144-.18.36-.18.18-.018.36-.036.558-.072.378-.054.504-.45.558-.972.072-.756.108-2.052.108-3.816zm19.008 5.472c-2.34 0-4.644-.396-6.534-1.98-1.764-1.512-2.268-3.366-2.268-5.292 0-1.224.414-3.456 2.232-4.986 1.548-1.314 3.348-1.854 5.958-1.854 1.026 0 1.854.108 2.556.216.81.126 1.242.216 1.782.234.198.018.198.126.198.234 0 .144-.054.576-.09 1.188-.036.594-.018 1.656-.054 2.106-.018.27-.054.432-.216.432-.144 0-.198-.126-.216-.378-.018-.396-.09-1.116-.684-1.764-.63-.666-1.89-1.134-3.636-1.134-1.062 0-1.944.252-2.646.864-1.098.954-1.584 2.628-1.584 4.554 0 3.708 2.016 6.192 5.04 6.192 1.476 0 2.394-.126 3.096-.918.252-.27.45-.666.594-1.206.09-.378.144-.504.288-.504.126 0 .144.18.144.324 0 .306-.216 1.872-.396 2.736-.036.27-.162.414-.468.522-.72.288-1.944.414-3.096.414zm17.1-3.978h-4.122c-.09 0-.126.036-.162.126l-.558 1.476c-.18.468-.288.936-.288 1.152 0 .342.162.504.54.54.198.036.486.054.63.072.27 0 .324.09.324.18 0 .144-.144.18-.378.18-.81 0-1.422-.054-2.376-.054-.198 0-1.386.054-2.286.054-.252 0-.36-.072-.36-.18 0-.144.126-.18.342-.18.216-.018.396-.036.576-.072.63-.126.99-.684 1.368-1.548l4.806-10.872c.342-.774.54-1.044.738-1.044.18 0 .342.252.648.9.468 1.008 3.492 7.902 4.716 10.638.612 1.404 1.008 1.836 1.638 1.926.198.054.414.054.576.072.234 0 .342.072.342.18 0 .126-.126.18-.468.18-1.764 0-3.816-.036-4.968-.054-.288 0-.396-.054-.396-.162s.09-.18.252-.216c.198-.036.27-.162.216-.324l-1.206-2.862c-.018-.072-.09-.108-.144-.108zm-3.6-1.44h3.078c.108 0 .108-.054.09-.09l-1.584-3.852c-.054-.126-.09-.09-.126 0l-1.53 3.852c-.018.054.018.09.072.09zm18.594-3.042v3.006c0 1.818-.054 3.114.252 3.492.252.342.594.432 2.088.432.99 0 1.566-.018 2.07-.288.432-.198.738-.666.936-1.512.054-.198.09-.342.234-.342.126 0 .144.09.144.342 0 .414-.198 2.124-.378 2.646-.144.468-.288.486-1.008.486-2.484 0-4.158-.108-6.066-.108-.846 0-1.818.054-2.808.054-.252 0-.396-.036-.396-.198 0-.108.108-.162.36-.162.216-.018.414-.036.612-.072.648-.108.666-.432.72-1.872.036-.72.054-1.8.054-2.916V5.508c0-2.934-.018-3.258-.054-3.834-.036-.504-.162-.81-.612-.936-.162-.054-.432-.072-.702-.09-.198 0-.378-.036-.378-.18s.18-.18.54-.18c1.026 0 1.962.054 2.664.054.162 0 2.394-.054 3.042-.054.324 0 .432.054.432.162 0 .162-.18.198-.432.198-.18.018-.36.018-.612.072-.486.09-.612.432-.648 1.062-.036.576-.054.936-.054 3.906zm27.936 8.46c-2.34 0-4.644-.396-6.534-1.98-1.764-1.512-2.268-3.366-2.268-5.292 0-1.224.414-3.456 2.232-4.986 1.548-1.314 3.348-1.854 5.958-1.854 1.026 0 1.854.108 2.556.216.81.126 1.242.216 1.782.234.198.018.198.126.198.234 0 .144-.054.576-.09 1.188-.036.594-.018 1.656-.054 2.106-.018.27-.054.432-.216.432-.144 0-.198-.126-.216-.378-.018-.396-.09-1.116-.684-1.764-.63-.666-1.89-1.134-3.636-1.134-1.062 0-1.944.252-2.646.864-1.098.954-1.584 2.628-1.584 4.554 0 3.708 2.016 6.192 5.04 6.192 1.476 0 2.394-.126 3.096-.918.252-.27.45-.666.594-1.206.09-.378.144-.504.288-.504.126 0 .144.18.144.324 0 .306-.216 1.872-.396 2.736-.036.27-.162.414-.468.522-.72.288-1.944.414-3.096.414zm17.046 0c-5.31 0-7.578-3.816-7.578-7.002 0-3.6 2.412-7.11 7.704-7.11 4.572 0 7.434 3.06 7.434 6.714 0 4.194-2.844 7.398-7.56 7.398zm.54-1.152c1.116 0 3.42-.486 3.42-5.454 0-2.988-1.242-6.39-4.428-6.39-1.656 0-3.51.918-3.51 5.184 0 3.402 1.422 6.66 4.518 6.66zm17.226-7.308v3.006c0 1.818-.054 3.114.252 3.492.252.342.594.432 2.088.432.99 0 1.566-.018 2.07-.288.432-.198.738-.666.936-1.512.054-.198.09-.342.234-.342.126 0 .144.09.144.342 0 .414-.198 2.124-.378 2.646-.144.468-.288.486-1.008.486-2.484 0-4.158-.108-6.066-.108-.846 0-1.818.054-2.808.054-.252 0-.396-.036-.396-.198 0-.108.108-.162.36-.162.216-.018.414-.036.612-.072.648-.108.666-.432.72-1.872.036-.72.054-1.8.054-2.916V5.508c0-2.934-.018-3.258-.054-3.834-.036-.504-.162-.81-.612-.936-.162-.054-.432-.072-.702-.09-.198 0-.378-.036-.378-.18s.18-.18.54-.18c1.026 0 1.962.054 2.664.054.162 0 2.394-.054 3.042-.054.324 0 .432.054.432.162 0 .162-.18.198-.432.198-.18.018-.36.018-.612.072-.486.09-.612.432-.648 1.062-.036.576-.054.936-.054 3.906zm15.228 0v3.006c0 1.818-.054 3.114.252 3.492.252.342.594.432 2.088.432.99 0 1.566-.018 2.07-.288.432-.198.738-.666.936-1.512.054-.198.09-.342.234-.342.126 0 .144.09.144.342 0 .414-.198 2.124-.378 2.646-.144.468-.288.486-1.008.486-2.484 0-4.158-.108-6.066-.108-.846 0-1.818.054-2.808.054-.252 0-.396-.036-.396-.198 0-.108.108-.162.36-.162.216-.018.414-.036.612-.072.648-.108.666-.432.72-1.872.036-.72.054-1.8.054-2.916V5.508c0-2.934-.018-3.258-.054-3.834-.036-.504-.162-.81-.612-.936-.162-.054-.432-.072-.702-.09-.198 0-.378-.036-.378-.18s.18-.18.54-.18c1.026 0 1.962.054 2.664.054.162 0 2.394-.054 3.042-.054.324 0 .432.054.432.162 0 .162-.18.198-.432.198-.18.018-.36.018-.612.072-.486.09-.612.432-.648 1.062-.036.576-.054.936-.054 3.906zm12.042 2.988V5.508c0-2.934-.018-3.294-.054-3.87-.036-.522-.198-.828-.648-.936-.162-.036-.414-.036-.594-.054-.234-.018-.324-.09-.324-.198s.108-.162.396-.162c1.026 0 1.89.054 2.682.054.378 0 4.788-.018 5.076-.018.36 0 .792-.036.972-.072.126-.036.216-.072.288-.072.09 0 .108.072.108.162s-.036.27-.09.792c-.054.36-.09.99-.144 1.926 0 .144-.072.252-.18.252-.09 0-.162-.09-.18-.252 0-.198-.018-.378-.09-.63-.09-.414-.324-.648-1.188-.72-.594-.054-2.16-.09-2.7-.09-.108 0-.144.054-.144.18v3.96c0 .126.018.216.144.216.504.018 1.962 0 2.61-.018.882-.036 1.116-.09 1.314-.414.108-.162.162-.234.252-.234.108 0 .108.108.108.216 0 .18-.09.828-.144 1.53-.018.414-.018 1.296-.018 1.494 0 .234-.054.342-.162.342-.126 0-.162-.126-.198-.288l-.054-.414c-.072-.522-.324-.828-1.206-.882a57.27 57.27 0 0 0-2.538-.072c-.09 0-.108.09-.108.234v1.242c0 .612-.018 1.674 0 2.358.018 1.26.27 1.548 2.268 1.548.468 0 1.17-.018 1.674-.216s.72-.594.882-1.422c.036-.216.108-.324.216-.324.144 0 .162.18.162.396 0 .702-.198 2.07-.288 2.412-.126.468-.252.486-.918.486-2.484 0-3.834-.108-5.724-.108-.846 0-1.602.054-2.592.054-.324 0-.432-.054-.432-.18 0-.09.09-.18.36-.18.216-.018.396-.036.54-.072.504-.072.576-.756.612-1.89.036-.72.054-1.782.054-2.898zm27.288 2.196v1.296c0 1.062-.036 1.17-.36 1.296-.954.378-2.79.684-4.41.684-5.058 0-8.568-2.268-8.568-7.056 0-3.006 1.566-4.914 3.24-5.868 1.84-1.098 3.78-1.188 5.15-1.188 1.098 0 2.142.126 2.916.252.612.072 1.206.198 1.728.216.162 0 .198.072.18.234-.036.18-.198.918-.198 3.312 0 .288-.072.378-.198.378s-.198-.144-.216-.288c-.036-.27-.036-.468-.216-.9-.342-1.224-1.944-2.088-4.446-2.088-1.332 0-2.412.378-3.222 1.296-.702.792-1.134 2.124-1.134 3.888 0 3.222 1.548 6.66 5.328 6.66.252 0 .738-.018 1.008-.216.144-.108.216-.27.216-.486v-1.098c0-.738 0-1.44-.018-2.106 0-1.026-.234-1.404-.846-1.494-.234-.036-.468-.054-.774-.09-.144 0-.288-.072-.288-.18s.09-.18.378-.18c1.17 0 2.556.054 3.042.054.648 0 1.818-.054 2.79-.054.27 0 .414.036.414.18 0 .126-.108.162-.288.18-.072 0-.306.036-.486.054-.432.09-.63.288-.684.918a44.165 44.165 0 0 0-.054 2.394zm7.884-2.196V5.508c0-2.934-.018-3.294-.054-3.87-.036-.522-.198-.828-.648-.936-.162-.036-.414-.036-.594-.054-.234-.018-.324-.09-.324-.198s.108-.162.396-.162c1.026 0 1.89.054 2.682.054.378 0 4.788-.018 5.076-.018.36 0 .792-.036.972-.072.126-.036.216-.072.288-.072.09 0 .108.072.108.162s-.036.27-.09.792c-.054.36-.09.99-.144 1.926 0 .144-.072.252-.18.252-.09 0-.162-.09-.18-.252 0-.198-.018-.378-.09-.63-.09-.414-.324-.648-1.188-.72-.594-.054-2.16-.09-2.7-.09-.108 0-.144.054-.144.18v3.96c0 .126.018.216.144.216.504.018 1.962 0 2.61-.018.882-.036 1.116-.09 1.314-.414.108-.162.162-.234.252-.234.108 0 .108.108.108.216 0 .18-.09.828-.144 1.53-.018.414-.018 1.296-.018 1.494 0 .234-.054.342-.162.342-.126 0-.162-.126-.198-.288l-.054-.414c-.072-.522-.324-.828-1.206-.882a57.27 57.27 0 0 0-2.538-.072c-.09 0-.108.09-.108.234v1.242c0 .612-.018 1.674 0 2.358.018 1.26.27 1.548 2.268 1.548.468 0 1.17-.018 1.674-.216s.72-.594.882-1.422c.036-.216.108-.324.216-.324.144 0 .162.18.162.396 0 .702-.198 2.07-.288 2.412-.126.468-.252.486-.918.486-2.484 0-3.834-.108-5.724-.108-.846 0-1.602.054-2.592.054-.324 0-.432-.054-.432-.18 0-.09.09-.18.36-.18.216-.018.396-.036.54-.072.504-.072.576-.756.612-1.89.036-.72.054-1.782.054-2.898zm25.938 5.472c-1.35 0-2.304-.18-3.006-.504-.306-.126-.396-.36-.396-.72 0-1.458.054-2.142.108-2.646.036-.324.108-.432.216-.432.126 0 .144.162.162.306.018.18.036.342.09.558.306 1.476 1.656 2.322 3.06 2.322 1.71 0 2.232-.882 2.232-1.656 0-.756-.144-1.386-1.674-2.43l-1.116-.774c-2.196-1.548-2.808-2.808-2.808-4.392 0-2.07 1.71-3.744 4.59-3.744.774 0 1.314.036 2.07.18.288.054.594.126.882.216.18.054.234.108.234.252-.036.576-.072.936-.072 2.538 0 .324-.054.45-.198.45-.09 0-.162-.054-.198-.342-.018-.18-.072-.63-.324-1.044-.342-.576-1.17-1.188-2.466-1.188-1.476 0-2.016.828-2.016 1.656 0 .612.216 1.314 1.44 2.142l.918.612c2.52 1.674 3.312 2.79 3.312 4.608 0 1.242-.558 2.466-1.908 3.258-1.044.63-2.196.774-3.132.774zm14.922-3.528V9.234c0-.972-.198-1.332-.504-1.926-.666-1.224-2.448-4.194-3.06-5.112-.684-1.044-.882-1.278-1.458-1.458a3.09 3.09 0 0 0-.468-.09c-.18-.018-.27-.09-.27-.198 0-.126.144-.162.36-.162.738 0 2.088.054 2.772.054.306 0 1.44-.054 2.574-.054.198 0 .342.036.342.144 0 .144-.09.18-.36.234-.486.054-.558.234-.558.378 0 .126.054.288.18.522.288.522 2.538 4.518 2.826 5.058 1.098-2.07 2.07-3.87 2.412-4.59.18-.378.288-.684.288-.918 0-.198-.108-.36-.648-.45-.162-.036-.306-.09-.306-.216 0-.108.108-.162.396-.162.738 0 1.35.054 2.034.054.252 0 1.728-.054 2.07-.054.216 0 .36.036.36.162 0 .144-.126.198-.36.198a3.04 3.04 0 0 0-.702.144c-.504.198-.684.504-1.008.918-.612.756-3.186 5.166-3.438 5.922a5.228 5.228 0 0 0-.288 1.71v1.278c0 .288 0 1.026.054 1.782.036.45.072.9.738 1.026.324.072.684.072.99.108.216.018.288.072.288.198 0 .09-.09.162-.36.162-1.296 0-2.79-.054-3.384-.054-.522 0-1.98.054-2.79.054-.252 0-.36-.072-.36-.198 0-.09.108-.162.324-.162.288-.036.468-.036.63-.09.468-.126.576-.45.612-.972.054-.756.072-1.566.072-1.854zm16.11 3.528c-1.35 0-2.304-.18-3.006-.504-.306-.126-.396-.36-.396-.72 0-1.458.054-2.142.108-2.646.036-.324.108-.432.216-.432.126 0 .144.162.162.306.018.18.036.342.09.558.306 1.476 1.656 2.322 3.06 2.322 1.71 0 2.232-.882 2.232-1.656 0-.756-.144-1.386-1.674-2.43l-1.116-.774c-2.196-1.548-2.808-2.808-2.808-4.392 0-2.07 1.71-3.744 4.59-3.744.774 0 1.314.036 2.07.18.288.054.594.126.882.216.18.054.234.108.234.252-.036.576-.072.936-.072 2.538 0 .324-.054.45-.198.45-.09 0-.162-.054-.198-.342-.018-.18-.072-.63-.324-1.044-.342-.576-1.17-1.188-2.466-1.188-1.476 0-2.016.828-2.016 1.656 0 .612.216 1.314 1.44 2.142l.918.612c2.52 1.674 3.312 2.79 3.312 4.608 0 1.242-.558 2.466-1.908 3.258-1.044.63-2.196.774-3.132.774zm17.75-12.528v7.056c0 1.404 0 3.078.09 3.834.036.468.162.846.702.936.234.036.45.054.774.09.288.018.36.072.36.198 0 .108-.09.162-.414.162-1.224 0-2.97-.054-3.258-.054-.306 0-2.052.054-2.646.054-.288 0-.414-.036-.414-.18 0-.126.144-.18.36-.18.18-.018.378-.036.576-.072.396-.072.522-.468.576-.99.072-.756.108-2.052.108-3.798V1.62c-.702 0-1.818-.018-2.718.036-1.008.054-1.404.288-1.638.918-.09.198-.126.306-.162.414-.036.144-.09.288-.216.288-.162 0-.162-.144-.144-.36.072-.738.27-1.71.396-2.394.036-.27.09-.45.198-.45.126 0 .198.054.612.144.324.072 1.314.126 1.998.126h7.83a7.48 7.48 0 0 0 1.134-.072c.288-.054.432-.108.558-.108.162 0 .18.108.18.558 0 .252-.108 1.926-.126 2.376-.018.252-.072.36-.18.36-.144 0-.18-.108-.198-.324-.018-.198-.018-.27-.036-.36-.072-.558-.342-.99-1.404-1.062-.594-.054-1.53-.09-2.898-.09zm11.322 7.056V5.508c0-2.934-.018-3.294-.054-3.87-.036-.522-.198-.828-.648-.936-.162-.036-.414-.036-.594-.054-.234-.018-.324-.09-.324-.198s.108-.162.396-.162c1.026 0 1.89.054 2.682.054.378 0 4.788-.018 5.076-.018.36 0 .792-.036.972-.072.126-.036.216-.072.288-.072.09 0 .108.072.108.162s-.036.27-.09.792c-.054.36-.09.99-.144 1.926 0 .144-.072.252-.18.252-.09 0-.162-.09-.18-.252 0-.198-.018-.378-.09-.63-.09-.414-.324-.648-1.188-.72-.594-.054-2.16-.09-2.7-.09-.108 0-.144.054-.144.18v3.96c0 .126.018.216.144.216.504.018 1.962 0 2.61-.018.882-.036 1.116-.09 1.314-.414.108-.162.162-.234.252-.234.108 0 .108.108.108.216 0 .18-.09.828-.144 1.53-.018.414-.018 1.296-.018 1.494 0 .234-.054.342-.162.342-.126 0-.162-.126-.198-.288l-.054-.414c-.072-.522-.324-.828-1.206-.882a57.27 57.27 0 0 0-2.538-.072c-.09 0-.108.09-.108.234v1.242c0 .612-.018 1.674 0 2.358.018 1.26.27 1.548 2.268 1.548.468 0 1.17-.018 1.674-.216s.72-.594.882-1.422c.036-.216.108-.324.216-.324.144 0 .162.18.162.396 0 .702-.198 2.07-.288 2.412-.126.468-.252.486-.918.486-2.484 0-3.834-.108-5.724-.108-.846 0-1.602.054-2.592.054-.324 0-.432-.054-.432-.18 0-.09.09-.18.36-.18.216-.018.396-.036.54-.072.504-.072.576-.756.612-1.89.036-.72.054-1.782.054-2.898zm28.5-7.974l1.476 10.872c.144 1.17.324 1.62.918 1.8.36.108.792.144 1.026.162.234 0 .342.054.342.18 0 .144-.144.18-.432.18-1.494 0-2.952 0-5.004-.108-.342-.018-.414-.126-.414-.216 0-.072.072-.144.198-.18.288-.108.306-.216.234-1.026l-.648-6.444-3.708 6.948c-.486.918-.594 1.026-.738 1.026-.198 0-.306-.18-.81-.972-.63-1.008-1.728-3.06-2.412-4.212-.306-.522-1.098-1.998-1.44-2.61l-.522 5.076c-.072.774-.072 1.17-.072 1.44 0 .522.18.738.63.828.27.054.432.072.666.09.27 0 .324.054.324.162 0 .144-.072.198-.36.198-.792 0-1.782-.054-2.322-.054-.558 0-1.404.054-2.07.054-.18 0-.396 0-.396-.18 0-.108.108-.18.36-.18.144-.018.342-.018.54-.054.522-.108.702-.522.882-1.71L732.25.702c.072-.54.198-.702.378-.702.198 0 .324.18.702.738l5.148 8.622L743.41.648c.288-.468.432-.648.612-.648s.288.252.342.702z" fill-rule="evenodd"/></svg>