<svg id="MAYSVILLE" xmlns="http://www.w3.org/2000/svg" viewBox="0 0 336.8 62.22"><defs><style>.cls-1{fill:#e7a614;}.cls-2{fill:#fff;}</style></defs><title>Maysville_EPS_Maysville_horiz_RGBrev</title><path id="State" class="cls-1" d="M136.75,38.21a4.7,4.7,0,0,0,0-.65,3,3,0,0,0-.13-.52,1.58,1.58,0,0,0-.51-.8,8.56,8.56,0,0,1-.68-.88c-.44-.58-.87-1.18-1.34-1.73l-5.68-6.69a4.58,4.58,0,0,1-.9-3.31l.9-5.44a4.06,4.06,0,0,0-1-3.19l-4.88-4.82a2.19,2.19,0,0,0-2.79-.17l-1.28,1a7.14,7.14,0,0,1-3.28,1.26h-.06a3.22,3.22,0,0,1-2.75-1.51l-.09-.16A3.17,3.17,0,0,0,109.78,9a2.1,2.1,0,0,0-1.89,1.45,1.46,1.46,0,0,1-1.57,1.17A1.9,1.9,0,0,1,105,10a2.18,2.18,0,0,0-2-1.66l-3.63-.45c-1-.12-4.56-.93-4.88-1.92l-1-3.1a3,3,0,0,0-.94-1.35,2.69,2.69,0,0,0-1-.69,5.73,5.73,0,0,0-1.48.15,5.67,5.67,0,0,1-1.54,0C88,.8,87.46.76,86.93.63a5.4,5.4,0,0,1-1-.51c-1-.47-2,.52-2.14,1.54l-.38,4.25c-.09,1-2.11,2.88-3,3.38l-2,1.64c-.88.5-2.71-1.62-3.71-1.69l-1.23-.08a2,2,0,0,0-2.06,1.77l-.14,1c-.13,1,.07,3.39-.7,4.06l-.73.62a9.78,9.78,0,0,0-2,2.38c-.31.64,0,1.4-.13,1.67-.29.87-.17,1.38-.85,1.63a2.13,2.13,0,0,1-.3.09,8.67,8.67,0,0,0-2.48,1,2.71,2.71,0,0,0-.61.44,2.48,2.48,0,0,0-.43.67c-.52,1.07-.86,3.61-2.18,4a2.81,2.81,0,0,1-1.44,0A6.32,6.32,0,0,1,56.64,27a5.19,5.19,0,0,0-1.25-1,2.45,2.45,0,0,0-2.63.75,7.32,7.32,0,0,0-1.33,2.57c-.26.72-.77,2.61-1.74,2.53a3.61,3.61,0,0,1-2.75-1.66,3.61,3.61,0,0,0-.71-1,1.6,1.6,0,0,0-1.36-.27,4.24,4.24,0,0,0-1.31.57A5.05,5.05,0,0,0,41,32.27c-.53,2-1.9,1.32-3.3.39a22.12,22.12,0,0,0-2.85-1.86,3.25,3.25,0,0,0-3.25.11c-.54.4-.92,1.05-1.56,1.23-.82.22-1.59-.42-2.36-.79a3.85,3.85,0,0,0-2.63-.23c-1.12.32-1.17,2.2-2.2,2.89-.57.38-1.21.67-1.75,1.1a2.19,2.19,0,0,0-.92,1.76,2.93,2.93,0,0,0,.24.85,16.18,16.18,0,0,1,1,2.62c.13.66-.27.78-.84,1.08a13.6,13.6,0,0,1-3.3,1.15c-1.39.32-3.9,0-4.42,1.72a10.38,10.38,0,0,0-.48,1.88,3.48,3.48,0,0,0,.22,1.53c.29.71.83,1.31,1.06,2A2.26,2.26,0,0,1,13,52.09a1.67,1.67,0,0,1-1.84.26l-4-1.42a2.87,2.87,0,0,0-2,.51l-3,2.74A5.74,5.74,0,0,0,1,56.88c-.23.91-.31,1.86-.61,2.75-.22.69-.78,2.48.26,2.59H56c0-.45-.07-.9-.07-1.36a14.31,14.31,0,1,1,28.61,0c0,.46,0,.91-.06,1.36h29.4A4.93,4.93,0,0,0,117,60.84l9-10a31,31,0,0,1,2.7-2.55l4.25-3.47c.79-.65,2.24-1.86,2.35-2.91,0-.12.25-.36.31-.45a5.37,5.37,0,0,0,.74-1.11,3.29,3.29,0,0,1,.08-.62,4.59,4.59,0,0,0,.14-.45c0-.15.2-.3.23-.46A3.64,3.64,0,0,0,136.75,38.21Z"/><path id="Rays" class="cls-2" d="M87.37,56.16l20.49-10-22,6.57,38.92-27.81L83.65,49.72,116.87,15l-36,32.21L93.23,22.55,77.63,45.34,89.13,3.5,74.07,44.19l2-29L70.35,43.8,66.57,25.38l.06,18.81L60.26,31l2.82,14.33L53,32.16l6.81,15.05L44,31.63l13,18.09L30.94,32.15,54.86,52.74,30.29,43.88,53.34,56.16,14,48.39,52.67,59.22l-46.86-3,46.61,6H56c0-.45-.07-.9-.07-1.36a14.31,14.31,0,1,1,28.61,0c0,.46,0,.91-.06,1.36h4.21l28.55-4-29,1,33.09-8Z"/><path class="cls-2" d="M150,40.76a3.89,3.89,0,0,1,2.82,1.11.24.24,0,0,1,0,.34l-.71.75a.18.18,0,0,1-.29,0,2.72,2.72,0,0,0-1.79-.7,2.79,2.79,0,0,0,0,5.56,2.78,2.78,0,0,0,1.78-.68.2.2,0,0,1,.29,0l.72.76a.25.25,0,0,1,0,.33A3.93,3.93,0,0,1,150,49.39a4.32,4.32,0,0,1,0-8.63Z"/><path class="cls-2" d="M157.67,40.76a4.32,4.32,0,1,1-4.18,4.32A4.24,4.24,0,0,1,157.67,40.76Zm0,7.07A2.76,2.76,0,1,0,155,45.08,2.72,2.72,0,0,0,157.67,47.83Z"/><path class="cls-2" d="M164.09,40.94a.19.19,0,0,1,.21-.18h.19a.19.19,0,0,1,.19.12l2.56,5.65h0l2.55-5.65a.2.2,0,0,1,.2-.12h.19a.19.19,0,0,1,.21.18L171.8,49c0,.17-.06.28-.21.28h-1.06a.26.26,0,0,1-.22-.18l-.69-4.55h0l-2,4.72a.19.19,0,0,1-.19.13h-.21a.21.21,0,0,1-.2-.13l-2.06-4.72h0l-.68,4.55a.22.22,0,0,1-.2.18h-1a.22.22,0,0,1-.22-.28Z"/><path class="cls-2" d="M174.21,40.94a.19.19,0,0,1,.21-.18h.18a.19.19,0,0,1,.2.12l2.56,5.65h0L180,40.88a.19.19,0,0,1,.2-.12h.18a.19.19,0,0,1,.21.18L181.91,49c0,.17,0,.28-.2.28h-1.06a.25.25,0,0,1-.22-.18l-.69-4.55h0l-2,4.72a.19.19,0,0,1-.2.13h-.2a.2.2,0,0,1-.2-.13L175,44.54h0l-.67,4.55a.23.23,0,0,1-.21.18h-1a.22.22,0,0,1-.23-.28Z"/><path class="cls-2" d="M183.23,41.1a.23.23,0,0,1,.22-.22h1.11a.22.22,0,0,1,.22.22V46a1.69,1.69,0,1,0,3.38,0V41.1a.22.22,0,0,1,.22-.22h1.11a.23.23,0,0,1,.22.22v5a3.24,3.24,0,1,1-6.48,0Z"/><path class="cls-2" d="M191.65,41a.22.22,0,0,1,.23-.21h.29l4.83,5.3h0v-5a.22.22,0,0,1,.22-.22h1.07a.22.22,0,0,1,.22.22v8.07a.22.22,0,0,1-.22.22H198l-4.85-5.5h0V49a.22.22,0,0,1-.22.23h-1.05a.24.24,0,0,1-.23-.23Z"/><path class="cls-2" d="M200.56,41.1a.22.22,0,0,1,.22-.22h1.08a.22.22,0,0,1,.22.22V49a.23.23,0,0,1-.22.23h-1.08a.23.23,0,0,1-.22-.23Z"/><path class="cls-2" d="M205.16,42.32h-1.78a.22.22,0,0,1-.22-.23v-1a.22.22,0,0,1,.22-.22h5.08a.22.22,0,0,1,.22.22v1a.22.22,0,0,1-.22.23h-1.78V49a.23.23,0,0,1-.22.23h-1.08a.23.23,0,0,1-.22-.23Z"/><path class="cls-2" d="M211.87,45.23l-2.65-4a.22.22,0,0,1,.19-.34h1.18a.23.23,0,0,1,.19.1l1.86,2.76L214.5,41a.25.25,0,0,1,.19-.1h1.19a.22.22,0,0,1,.19.34l-2.69,4V49a.23.23,0,0,1-.22.23h-1.07a.23.23,0,0,1-.22-.23Z"/><path class="cls-2" d="M147.8,55.91v0l-.24-.28a2.43,2.43,0,0,1-.79-1.72,2.22,2.22,0,0,1,4.4,0c0,1.23-1.19,2-1.42,2.18l1.33,1.39a5,5,0,0,0,.42-1.33c.05-.25.12-.38.39-.3l.63.19c.31.09.23.35.2.47a8.66,8.66,0,0,1-.72,1.91l1,1c.14.15.25.28,0,.56l-.47.5a.34.34,0,0,1-.52,0l-.83-.87a3.3,3.3,0,0,1-2.54,1,2.3,2.3,0,0,1-2.45-2.26A2.86,2.86,0,0,1,147.8,55.91Zm1,3.38a1.88,1.88,0,0,0,1.5-.7l-1.73-1.9a1.74,1.74,0,0,0-1,1.48A1.14,1.14,0,0,0,148.8,59.29ZM149.91,54a.93.93,0,0,0-1-.9.81.81,0,0,0-.86.82c0,.42.26.69.61,1.08l.25.26C149.1,55.12,149.91,54.71,149.91,54Z"/><path class="cls-2" d="M157.47,53.5h-1.78a.22.22,0,0,1-.22-.22v-1a.22.22,0,0,1,.22-.23h5.08a.22.22,0,0,1,.22.23v1a.22.22,0,0,1-.22.22H159v6.73a.23.23,0,0,1-.22.23h-1.08a.23.23,0,0,1-.22-.23Z"/><path class="cls-2" d="M161.87,52.29a.22.22,0,0,1,.22-.23h4.73a.22.22,0,0,1,.22.23v1a.22.22,0,0,1-.22.22h-3.44v2h2.87a.23.23,0,0,1,.22.23v1a.22.22,0,0,1-.22.23h-2.87V59h3.44a.22.22,0,0,1,.22.23v1a.22.22,0,0,1-.22.23h-4.73a.22.22,0,0,1-.22-.23Z"/><path class="cls-2" d="M171.94,51.94a3.88,3.88,0,0,1,2.81,1.12.22.22,0,0,1,0,.34l-.71.75a.18.18,0,0,1-.29,0,2.6,2.6,0,0,0-4.38,2.09A2.68,2.68,0,0,0,172,59a2.72,2.72,0,0,0,1.78-.69.21.21,0,0,1,.29,0l.73.77a.23.23,0,0,1,0,.32,3.93,3.93,0,0,1-2.82,1.17,4.32,4.32,0,0,1,0-8.64Z"/><path class="cls-2" d="M176,52.29a.24.24,0,0,1,.22-.23h1.08a.23.23,0,0,1,.23.23v3.18h3.79V52.29a.22.22,0,0,1,.22-.23h1.07a.24.24,0,0,1,.22.23v7.94a.24.24,0,0,1-.22.23h-1.07a.22.22,0,0,1-.22-.23V56.92h-3.79v3.31a.23.23,0,0,1-.23.23h-1.08a.24.24,0,0,1-.22-.23Z"/><path class="cls-2" d="M184.6,52.16a.23.23,0,0,1,.22-.22h.3l4.83,5.3h0v-5a.23.23,0,0,1,.22-.23h1.07a.23.23,0,0,1,.22.23v8.07a.22.22,0,0,1-.22.22H191l-4.86-5.51h0v5.16a.22.22,0,0,1-.22.23h-1.06a.24.24,0,0,1-.22-.23Z"/><path class="cls-2" d="M193.3,52.29a.23.23,0,0,1,.22-.23h1.08a.23.23,0,0,1,.22.23v7.94a.23.23,0,0,1-.22.23h-1.08a.23.23,0,0,1-.22-.23Z"/><path class="cls-2" d="M200.27,51.94a3.88,3.88,0,0,1,2.81,1.12.23.23,0,0,1,0,.34l-.71.75a.18.18,0,0,1-.29,0,2.73,2.73,0,0,0-1.79-.71,2.79,2.79,0,0,0,0,5.57,2.76,2.76,0,0,0,1.78-.69.21.21,0,0,1,.29,0l.72.77a.23.23,0,0,1,0,.32,4,4,0,0,1-2.83,1.17,4.32,4.32,0,0,1,0-8.64Z"/><path class="cls-2" d="M203.49,60.14l3.62-8.06a.2.2,0,0,1,.19-.14h.12a.2.2,0,0,1,.2.14l3.58,8.06a.22.22,0,0,1-.2.32h-1a.35.35,0,0,1-.34-.24l-.57-1.3h-3.47l-.57,1.3a.35.35,0,0,1-.34.24h-1A.22.22,0,0,1,203.49,60.14Zm5-2.55L207.35,55h0l-1.14,2.64Z"/><path class="cls-2" d="M212,52.29a.22.22,0,0,1,.22-.23h1.07a.24.24,0,0,1,.22.23V59h3a.22.22,0,0,1,.22.23v1a.22.22,0,0,1-.22.23h-4.25a.22.22,0,0,1-.22-.23Z"/><path class="cls-2" d="M229.7,40.64a9.41,9.41,0,0,1,6.77,2.6.53.53,0,0,1,0,.79l-2.18,2.26a.48.48,0,0,1-.7,0,5.75,5.75,0,0,0-3.78-1.43,5.73,5.73,0,0,0,0,11.45A5.93,5.93,0,0,0,233.62,55a.56.56,0,0,1,.72,0l2.19,2.32a.58.58,0,0,1,0,.76,9.58,9.58,0,0,1-6.8,2.71,10.07,10.07,0,1,1,0-20.14Z"/><path class="cls-2" d="M247.73,40.64a10.07,10.07,0,1,1-10,10.1A10.06,10.06,0,0,1,247.73,40.64Zm0,15.67a5.6,5.6,0,1,0-5.56-5.57A5.61,5.61,0,0,0,247.73,56.31Z"/><path class="cls-2" d="M260.94,41.45a.53.53,0,0,1,.53-.53h3.33a.55.55,0,0,1,.53.53V56.39H272a.53.53,0,0,1,.53.53v3a.53.53,0,0,1-.53.53H261.47a.53.53,0,0,1-.53-.53Z"/><path class="cls-2" d="M274.73,41.45a.53.53,0,0,1,.53-.53h3.33a.55.55,0,0,1,.53.53V56.39h6.66a.53.53,0,0,1,.53.53v3a.53.53,0,0,1-.53.53H275.26a.53.53,0,0,1-.53-.53Z"/><path class="cls-2" d="M288.52,41.45a.53.53,0,0,1,.53-.53h11.58a.53.53,0,0,1,.53.53v3a.53.53,0,0,1-.53.53h-7.75V48.5h6.38a.55.55,0,0,1,.53.53v3a.53.53,0,0,1-.53.53h-6.38v3.78h7.75a.53.53,0,0,1,.53.53v3a.53.53,0,0,1-.53.53H289.05a.53.53,0,0,1-.53-.53Z"/><path class="cls-2" d="M313.23,40.67a10.83,10.83,0,0,1,6.83,2.63.48.48,0,0,1,.05.75L317.9,46.4a.58.58,0,0,1-.75,0,5.16,5.16,0,0,0-3.67-1.34,5.61,5.61,0,0,0,0,11.22,6.74,6.74,0,0,0,2.49-.45V54.24h-1.76a.51.51,0,0,1-.53-.51V51a.52.52,0,0,1,.53-.53h5.62a.53.53,0,0,1,.51.53l0,7.53a.72.72,0,0,1-.22.45,14.12,14.12,0,0,1-6.94,1.82,10,10,0,0,1,0-20.09Z"/><path class="cls-2" d="M324.15,41.45a.53.53,0,0,1,.53-.53h11.59a.53.53,0,0,1,.53.53v3a.53.53,0,0,1-.53.53h-7.75V48.5h6.38a.55.55,0,0,1,.53.53v3a.53.53,0,0,1-.53.53h-6.38v3.78h7.75a.53.53,0,0,1,.53.53v3a.53.53,0,0,1-.53.53H324.68a.53.53,0,0,1-.53-.53Z"/><path class="cls-2" d="M149.93,9.77a.71.71,0,0,1,.67-.59h.59a.81.81,0,0,1,.63.37l8.59,16h.07l8.59-16a.81.81,0,0,1,.63-.37h.59a.7.7,0,0,1,.66.59l4.18,24.87a.67.67,0,0,1-.7.81h-4.37a.75.75,0,0,1-.7-.59L167.7,23.43h-.08l-6.21,12a.87.87,0,0,1-.63.4h-.67a.8.8,0,0,1-.63-.4l-6.25-12h-.08l-1.62,11.43a.72.72,0,0,1-.71.59h-4.36a.68.68,0,0,1-.71-.81Z"/><path class="cls-2" d="M177.73,34.49l11.58-24.9a.74.74,0,0,1,.63-.41h.37a.74.74,0,0,1,.63.41l11.58,24.9a.65.65,0,0,1-.63,1h-4.1c-.67,0-1-.22-1.3-.92l-1.33-2.93H185.09l-1.33,3a1.36,1.36,0,0,1-1.33.89h-4.07A.65.65,0,0,1,177.73,34.49Zm15.21-7.92-2.82-6.1h0l-2.78,6.1Z"/><path class="cls-2" d="M207.17,23,199,10.62a.69.69,0,0,1,.6-1.07h4.81a.73.73,0,0,1,.59.33l5.14,7.59,5.15-7.59a.66.66,0,0,1,.59-.33h4.81a.68.68,0,0,1,.59,1.07L213,22.94V34.75a.72.72,0,0,1-.7.7h-4.41a.7.7,0,0,1-.7-.7Z"/><path class="cls-2" d="M222.75,31.94l1.73-3.07a1,1,0,0,1,1.26-.23c.15.08,2.82,2,5.26,2a2.32,2.32,0,0,0,2.55-2.22c0-1.56-1.29-2.74-3.81-3.74-3.18-1.26-7.18-3.74-7.18-8.18,0-3.66,2.85-7.36,8.55-7.36A13.8,13.8,0,0,1,239,12a1,1,0,0,1,.22,1.19L237.36,16c-.26.41-.92.74-1.26.48s-3-2.22-5.29-2.22a2.15,2.15,0,0,0-2.33,1.89c0,1.36,1.11,2.4,4,3.59s7.48,3.4,7.48,8.43c0,3.81-3.29,7.66-8.73,7.66-4.81,0-7.48-2-8.33-2.85C222.56,32.6,222.45,32.46,222.75,31.94Z"/><path class="cls-2" d="M242.36,10.51a.65.65,0,0,1,.63-1h4.92a.71.71,0,0,1,.63.41l6.11,13.5h.22L261,10a.71.71,0,0,1,.63-.41h4.92a.65.65,0,0,1,.63,1L255.54,35.42a.71.71,0,0,1-.63.4h-.37a.7.7,0,0,1-.63-.4Z"/><path class="cls-2" d="M270.19,10.25a.72.72,0,0,1,.7-.7h4.44a.72.72,0,0,1,.7.7v24.5a.72.72,0,0,1-.7.7h-4.44a.72.72,0,0,1-.7-.7Z"/><path class="cls-2" d="M281.2,10.25a.7.7,0,0,1,.71-.7h4.4a.72.72,0,0,1,.7.7V30h8.81a.7.7,0,0,1,.7.71v4a.7.7,0,0,1-.7.7H281.91a.7.7,0,0,1-.71-.7Z"/><path class="cls-2" d="M300.11,10.25a.7.7,0,0,1,.7-.7h4.4a.72.72,0,0,1,.71.7V30h8.81a.71.71,0,0,1,.7.71v4a.7.7,0,0,1-.7.7H300.81a.7.7,0,0,1-.7-.7Z"/><path class="cls-2" d="M319,10.25a.7.7,0,0,1,.71-.7H335a.7.7,0,0,1,.7.7v4a.7.7,0,0,1-.7.7H324.79v4.59h8.43a.73.73,0,0,1,.71.7v4a.71.71,0,0,1-.71.71h-8.43v5H335a.7.7,0,0,1,.7.71v4a.7.7,0,0,1-.7.7H319.72a.7.7,0,0,1-.71-.7Z"/></svg>
