<svg xmlns="http://www.w3.org/2000/svg" viewBox="0 0 302.798 36.004"><path d="M20.61 4.28v.84c.77-.714 1.918-1.918 3.024-3.164.462-.532.728-.924.728-1.148 0-.154-.056-.238-.392-.308-.126-.014-.238-.042-.238-.14 0-.07.07-.126.224-.126.63 0 .686.028 1.484.028.812 0 1.834-.028 2.016-.028.238 0 .294.028.294.126 0 .07-.07.126-.252.14-.21.028-.336.042-.504.084-.686.14-1.134.56-1.806 1.204-.644.616-2.226 2.254-2.59 2.646.546.854 2.856 3.654 3.794 4.634.84.854 1.218 1.162 1.47 1.274s.42.154.644.182c.196.014.294.042.294.154s-.126.126-.28.126h-1.372c-1.848 0-2.492-.182-3.206-.966-.77-.84-2.296-2.8-3.332-4.326v1.232c0 1.092.014 2.366.07 2.954.028.35.126.7.602.77.196.028.42.042.602.056.168 0 .238.07.238.14s-.056.14-.266.14c-.924 0-2.422-.042-2.548-.042-.07 0-1.666.042-2.128.042-.182 0-.28-.028-.28-.14 0-.098.098-.14.252-.14.14-.014.28-.014.434-.042.434-.07.476-.406.518-.812.056-.588.084-1.568.084-2.926V4.28c0-2.17 0-2.562-.042-3.01-.028-.392-.182-.644-.518-.714-.21-.042-.392-.042-.532-.056-.182 0-.294-.028-.294-.154 0-.084.112-.126.378-.126.602 0 2.03.042 2.128.042.126 0 1.82-.042 2.324-.042.238 0 .294.056.294.126 0 .098-.07.14-.252.154-.126.014-.21.014-.42.042-.49.07-.574.392-.602.84s-.042.728-.042 2.898zm12.11 2.464V4.28c0-2.282-.014-2.562-.042-3.01-.028-.406-.154-.644-.504-.728-.126-.028-.322-.028-.462-.042-.182-.014-.252-.07-.252-.154s.084-.126.308-.126c.798 0 1.47.042 2.086.042.294 0 3.724-.014 3.948-.014.28 0 .616-.028.756-.056.098-.028.168-.056.224-.056.07 0 .084.056.084.126s-.028.21-.07.616c-.042.28-.07.77-.112 1.498 0 .112-.056.196-.14.196-.07 0-.126-.07-.14-.196a1.65 1.65 0 0 0-.07-.49c-.07-.322-.252-.504-.924-.56-.462-.042-1.68-.07-2.1-.07-.084 0-.112.042-.112.14v3.08c0 .098.014.168.112.168.392.014 1.526 0 2.03-.014.686-.028.868-.07 1.022-.322.084-.126.126-.182.196-.182.084 0 .084.084.084.168 0 .14-.07.644-.112 1.19-.014.322-.014 1.008-.014 1.162 0 .182-.042.266-.126.266-.098 0-.126-.098-.154-.224l-.042-.322c-.056-.406-.252-.644-.938-.686a44.544 44.544 0 0 0-1.974-.056c-.07 0-.084.07-.084.182v.966c0 .476-.014 1.302 0 1.834.014.98.21 1.204 1.764 1.204.364 0 .91-.014 1.302-.168s.56-.462.686-1.106c.028-.168.084-.252.168-.252.112 0 .126.14.126.308 0 .546-.154 1.61-.224 1.876-.098.364-.196.378-.714.378-1.932 0-2.982-.084-4.452-.084-.658 0-1.246.042-2.016.042-.252 0-.336-.042-.336-.14 0-.07.07-.14.28-.14.168-.014.308-.028.42-.056.392-.056.448-.588.476-1.47.028-.56.042-1.386.042-2.254zm11.76 2.002c.07-2.884.042-6.258.126-8.064.014-.42.07-.672.238-.672.112 0 .182.042.546.336.588.49 1.316 1.19 4.522 4.13 1.428 1.316 2.394 2.254 2.772 2.59l-.084-5.25c-.028-.784-.098-1.148-.658-1.246-.196-.042-.42-.056-.616-.07-.182 0-.252-.07-.252-.14 0-.098.126-.14.28-.14.56 0 1.47.042 2.03.042.308 0 1.008-.042 1.596-.042.21 0 .308.042.308.126 0 .07-.07.154-.238.154-.182.014-.252.014-.35.042-.462.056-.602.294-.644 1.162-.112 2.814-.112 5.614-.168 8.428 0 .714-.098.868-.28.868-.224 0-.658-.336-1.568-1.134-.952-.84-2.184-1.946-3.024-2.716-.784-.714-2.184-2.03-3.206-3.024l.14 4.774c.028 1.008.084 1.386.476 1.526.21.07.462.07.742.098.21.014.28.056.28.14 0 .112-.112.14-.336.14-.49 0-.938-.028-1.806-.042-.322 0-1.358.042-1.904.042-.196 0-.308-.028-.308-.14 0-.084.07-.14.266-.14.126-.014.308-.014.462-.042.546-.084.616-.434.658-1.736zm20.552-7.49v5.488c0 1.092 0 2.394.07 2.982.028.364.126.658.546.728.182.028.35.042.602.07.224.014.28.056.28.154 0 .084-.07.126-.322.126-.952 0-2.31-.042-2.534-.042-.238 0-1.596.042-2.058.042-.224 0-.322-.028-.322-.14 0-.098.112-.14.28-.14.14-.014.294-.028.448-.056.308-.056.406-.364.448-.77.056-.588.084-1.596.084-2.954V1.256c-.546 0-1.414-.014-2.114.028-.784.042-1.092.224-1.274.714-.07.154-.098.238-.126.322-.028.112-.07.224-.168.224-.126 0-.126-.112-.112-.28.056-.574.21-1.33.308-1.862.028-.21.07-.35.154-.35.098 0 .154.042.476.112.252.056 1.022.098 1.554.098h6.09c.434 0 .686-.028.882-.056.224-.042.336-.084.434-.084.126 0 .14.084.14.434 0 .196-.084 1.498-.098 1.848-.014.196-.056.28-.14.28-.112 0-.14-.084-.154-.252-.014-.154-.014-.21-.028-.28-.056-.434-.266-.77-1.092-.826-.462-.042-1.19-.07-2.254-.07zM76.358 4.28v2.1c0 1.932.294 2.744 1.064 3.29.574.378 1.05.392 1.4.392.448 0 1.05-.098 1.54-.518.784-.672.784-2.142.784-3.584V4.28c0-2.058 0-2.422-.028-2.87-.028-.532-.14-.77-.602-.854-.154-.028-.238-.028-.518-.056-.182 0-.252-.056-.252-.14s.07-.14.322-.14c.798 0 1.652.042 1.876.042.252 0 1.162-.042 1.848-.042.21 0 .294.042.294.14 0 .07-.056.126-.238.14-.154.014-.238.014-.434.056-.378.07-.49.28-.532.854-.028.448-.042.812-.042 2.87v1.372c0 1.596-.07 3.318-1.428 4.424-.868.728-1.96.924-2.912.924-1.232 0-2.464-.182-3.332-.938-.742-.616-1.302-1.638-1.302-3.654V4.28c0-2.17 0-2.562-.042-3.01-.028-.392-.112-.574-.434-.672-.154-.056-.476-.084-.602-.098-.21-.014-.294-.07-.294-.154s.112-.126.378-.126c.602 0 2.016.042 2.142.042.112 0 1.778-.042 2.282-.042.238 0 .308.042.308.126 0 .112-.07.14-.252.154-.126.014-.322.028-.462.056-.392.084-.462.378-.49.826s-.042 1.106-.042 2.898zM94.726 11c-1.82 0-3.612-.308-5.082-1.54-1.372-1.176-1.764-2.618-1.764-4.116 0-.952.322-2.688 1.736-3.878C90.82.444 92.22.024 94.25.024c.798 0 1.442.084 1.988.168.63.098.966.168 1.386.182.154.014.154.098.154.182 0 .112-.042.448-.07.924-.028.462-.014 1.288-.042 1.638-.014.21-.042.336-.168.336-.112 0-.154-.098-.168-.294-.014-.308-.07-.868-.532-1.372-.49-.518-1.47-.882-2.828-.882-.826 0-1.512.196-2.058.672-.854.742-1.232 2.044-1.232 3.542 0 2.884 1.568 4.816 3.92 4.816 1.148 0 1.862-.098 2.408-.714.196-.21.35-.518.462-.938.07-.294.112-.392.224-.392.098 0 .112.14.112.252 0 .238-.168 1.456-.308 2.128-.028.21-.126.322-.364.406-.56.224-1.512.322-2.408.322zm10.948-6.72v.84c.77-.714 1.918-1.918 3.024-3.164.462-.532.728-.924.728-1.148 0-.154-.056-.238-.392-.308-.126-.014-.238-.042-.238-.14 0-.07.07-.126.224-.126.63 0 .686.028 1.484.028.812 0 1.834-.028 2.016-.028.238 0 .294.028.294.126 0 .07-.07.126-.252.14-.21.028-.336.042-.504.084-.686.14-1.134.56-1.806 1.204-.644.616-2.226 2.254-2.59 2.646.546.854 2.856 3.654 3.794 4.634.84.854 1.218 1.162 1.47 1.274s.42.154.644.182c.196.014.294.042.294.154s-.126.126-.28.126h-1.372c-1.848 0-2.492-.182-3.206-.966-.77-.84-2.296-2.8-3.332-4.326v1.232c0 1.092.014 2.366.07 2.954.028.35.126.7.602.77.196.028.42.042.602.056.168 0 .238.07.238.14s-.056.14-.266.14c-.924 0-2.422-.042-2.548-.042-.07 0-1.666.042-2.128.042-.182 0-.28-.028-.28-.14 0-.098.098-.14.252-.14.14-.014.28-.014.434-.042.434-.07.476-.406.518-.812.056-.588.084-1.568.084-2.926V4.28c0-2.17 0-2.562-.042-3.01-.028-.392-.182-.644-.518-.714-.21-.042-.392-.042-.532-.056-.182 0-.294-.028-.294-.154 0-.084.112-.126.378-.126.602 0 2.03.042 2.128.042.126 0 1.82-.042 2.324-.042.238 0 .294.056.294.126 0 .098-.07.14-.252.154-.126.014-.21.014-.42.042-.49.07-.574.392-.602.84s-.042.728-.042 2.898zm13.65 3.976V7.178c0-.756-.154-1.036-.392-1.498-.518-.952-1.904-3.262-2.38-3.976-.532-.812-.686-.994-1.134-1.134a2.403 2.403 0 0 0-.364-.07c-.14-.014-.21-.07-.21-.154 0-.098.112-.126.28-.126.574 0 1.624.042 2.156.042.238 0 1.12-.042 2.002-.042.154 0 .266.028.266.112 0 .112-.07.14-.28.182-.378.042-.434.182-.434.294 0 .098.042.224.14.406.224.406 1.974 3.514 2.198 3.934.854-1.61 1.61-3.01 1.876-3.57.14-.294.224-.532.224-.714 0-.154-.084-.28-.504-.35-.126-.028-.238-.07-.238-.168 0-.084.084-.126.308-.126.574 0 1.05.042 1.582.042.196 0 1.344-.042 1.61-.042.168 0 .28.028.28.126 0 .112-.098.154-.28.154a2.364 2.364 0 0 0-.546.112c-.392.154-.532.392-.784.714-.476.588-2.478 4.018-2.674 4.606a4.066 4.066 0 0 0-.224 1.33v.994c0 .224 0 .798.042 1.386.028.35.056.7.574.798.252.056.532.056.77.084.168.014.224.056.224.154 0 .07-.07.126-.28.126-1.008 0-2.17-.042-2.632-.042-.406 0-1.54.042-2.17.042-.196 0-.28-.056-.28-.154 0-.07.084-.126.252-.126.224-.028.364-.028.49-.07.364-.098.448-.35.476-.756.042-.588.056-1.218.056-1.442zM142.48 11c-1.82 0-3.612-.308-5.082-1.54-1.372-1.176-1.764-2.618-1.764-4.116 0-.952.322-2.688 1.736-3.878 1.204-1.022 2.604-1.442 4.634-1.442.798 0 1.442.084 1.988.168.63.098.966.168 1.386.182.154.014.154.098.154.182 0 .112-.042.448-.07.924-.028.462-.014 1.288-.042 1.638-.014.21-.042.336-.168.336-.112 0-.154-.098-.168-.294-.014-.308-.07-.868-.532-1.372-.49-.518-1.47-.882-2.828-.882-.826 0-1.512.196-2.058.672-.854.742-1.232 2.044-1.232 3.542 0 2.884 1.568 4.816 3.92 4.816 1.148 0 1.862-.098 2.408-.714.196-.21.35-.518.462-.938.07-.294.112-.392.224-.392.098 0 .112.14.112.252 0 .238-.168 1.456-.308 2.128-.028.21-.126.322-.364.406-.56.224-1.512.322-2.408.322zm13.258 0c-4.13 0-5.894-2.968-5.894-5.446 0-2.8 1.876-5.53 5.992-5.53 3.556 0 5.782 2.38 5.782 5.222 0 3.262-2.212 5.754-5.88 5.754zm.42-.896c.868 0 2.66-.378 2.66-4.242 0-2.324-.966-4.97-3.444-4.97-1.288 0-2.73.714-2.73 4.032 0 2.646 1.106 5.18 3.514 5.18zm21-9.562l1.148 8.456c.112.91.252 1.26.714 1.4.28.084.616.112.798.126.182 0 .266.042.266.14 0 .112-.112.14-.336.14-1.162 0-2.296 0-3.892-.084-.266-.014-.322-.098-.322-.168 0-.056.056-.112.154-.14.224-.084.238-.168.182-.798l-.504-5.012-2.884 5.404c-.378.714-.462.798-.574.798-.154 0-.238-.14-.63-.756-.49-.784-1.344-2.38-1.876-3.276-.238-.406-.854-1.554-1.12-2.03l-.406 3.948c-.056.602-.056.91-.056 1.12 0 .406.14.574.49.644.21.042.336.056.518.07.21 0 .252.042.252.126 0 .112-.056.154-.28.154-.616 0-1.386-.042-1.806-.042-.434 0-1.092.042-1.61.042-.14 0-.308 0-.308-.14 0-.084.084-.14.28-.14.112-.014.266-.014.42-.042.406-.084.546-.406.686-1.33l1.274-8.61c.056-.42.154-.546.294-.546.154 0 .252.14.546.574l4.004 6.706L176.416.5c.224-.364.336-.504.476-.504s.224.196.266.546zm17.528 0l1.148 8.456c.112.91.252 1.26.714 1.4.28.084.616.112.798.126.182 0 .266.042.266.14 0 .112-.112.14-.336.14-1.162 0-2.296 0-3.892-.084-.266-.014-.322-.098-.322-.168 0-.056.056-.112.154-.14.224-.084.238-.168.182-.798l-.504-5.012-2.884 5.404c-.378.714-.462.798-.574.798-.154 0-.238-.14-.63-.756-.49-.784-1.344-2.38-1.876-3.276-.238-.406-.854-1.554-1.12-2.03l-.406 3.948c-.056.602-.056.91-.056 1.12 0 .406.14.574.49.644.21.042.336.056.518.07.21 0 .252.042.252.126 0 .112-.056.154-.28.154-.616 0-1.386-.042-1.806-.042-.434 0-1.092.042-1.61.042-.14 0-.308 0-.308-.14 0-.084.084-.14.28-.14.112-.014.266-.014.42-.042.406-.084.546-.406.686-1.33l1.274-8.61c.056-.42.154-.546.294-.546.154 0 .252.14.546.574l4.004 6.706L193.944.5c.224-.364.336-.504.476-.504s.224.196.266.546zm9.324 3.738v2.1c0 1.932.294 2.744 1.064 3.29.574.378 1.05.392 1.4.392.448 0 1.05-.098 1.54-.518.784-.672.784-2.142.784-3.584V4.28c0-2.058 0-2.422-.028-2.87-.028-.532-.14-.77-.602-.854-.154-.028-.238-.028-.518-.056-.182 0-.252-.056-.252-.14s.07-.14.322-.14c.798 0 1.652.042 1.876.042.252 0 1.162-.042 1.848-.042.21 0 .294.042.294.14 0 .07-.056.126-.238.14-.154.014-.238.014-.434.056-.378.07-.49.28-.532.854-.028.448-.042.812-.042 2.87v1.372c0 1.596-.07 3.318-1.428 4.424-.868.728-1.96.924-2.912.924-1.232 0-2.464-.182-3.332-.938-.742-.616-1.302-1.638-1.302-3.654V4.28c0-2.17 0-2.562-.042-3.01-.028-.392-.112-.574-.434-.672-.154-.056-.476-.084-.602-.098-.21-.014-.294-.07-.294-.154s.112-.126.378-.126c.602 0 2.016.042 2.142.042.112 0 1.778-.042 2.282-.042.238 0 .308.042.308.126 0 .112-.07.14-.252.154-.126.014-.322.028-.462.056-.392.084-.462.378-.49.826s-.042 1.106-.042 2.898zm12.558 4.466c.07-2.884.042-6.258.126-8.064.014-.42.07-.672.238-.672.112 0 .182.042.546.336.588.49 1.316 1.19 4.522 4.13 1.428 1.316 2.394 2.254 2.772 2.59l-.084-5.25c-.028-.784-.098-1.148-.658-1.246-.196-.042-.42-.056-.616-.07-.182 0-.252-.07-.252-.14 0-.098.126-.14.28-.14.56 0 1.47.042 2.03.042.308 0 1.008-.042 1.596-.042.21 0 .308.042.308.126 0 .07-.07.154-.238.154-.182.014-.252.014-.35.042-.462.056-.602.294-.644 1.162-.112 2.814-.112 5.614-.168 8.428 0 .714-.098.868-.28.868-.224 0-.658-.336-1.568-1.134-.952-.84-2.184-1.946-3.024-2.716-.784-.714-2.184-2.03-3.206-3.024l.14 4.774c.028 1.008.084 1.386.476 1.526.21.07.462.07.742.098.21.014.28.056.28.14 0 .112-.112.14-.336.14-.49 0-.938-.028-1.806-.042-.322 0-1.358.042-1.904.042-.196 0-.308-.028-.308-.14 0-.084.07-.14.266-.14.126-.014.308-.014.462-.042.546-.084.616-.434.658-1.736zm16.086-2.002V4.28c0-2.17 0-2.576-.042-3.024-.028-.392-.182-.644-.49-.7a2.351 2.351 0 0 0-.42-.056c-.168 0-.266-.056-.266-.154 0-.084.07-.126.308-.126.56 0 1.932.042 2.044.042.126 0 1.778-.042 2.282-.042.238 0 .308.056.308.14 0 .112-.126.14-.266.14-.14.014-.224.014-.406.042-.364.07-.504.252-.532.756-.042.448-.042.812-.042 2.982v2.464c0 1.106.014 2.408.07 2.996.028.364.112.616.532.714.182.042.434.056.616.07.238 0 .294.056.294.14 0 .07-.07.14-.294.14-.952 0-2.45-.042-2.576-.042-.07 0-1.54.042-2.016.042-.224 0-.336-.028-.336-.14 0-.098.112-.14.28-.14.14-.014.28-.028.434-.056.294-.042.392-.35.434-.756.056-.588.084-1.596.084-2.968zm13.818-5.488v5.488c0 1.092 0 2.394.07 2.982.028.364.126.658.546.728.182.028.35.042.602.07.224.014.28.056.28.154 0 .084-.07.126-.322.126-.952 0-2.31-.042-2.534-.042-.238 0-1.596.042-2.058.042-.224 0-.322-.028-.322-.14 0-.098.112-.14.28-.14.14-.014.294-.028.448-.056.308-.056.406-.364.448-.77.056-.588.084-1.596.084-2.954V1.256c-.546 0-1.414-.014-2.114.028-.784.042-1.092.224-1.274.714-.07.154-.098.238-.126.322-.028.112-.07.224-.168.224-.126 0-.126-.112-.112-.28.056-.574.21-1.33.308-1.862.028-.21.07-.35.154-.35.098 0 .154.042.476.112.252.056 1.022.098 1.554.098h6.09c.434 0 .686-.028.882-.056.224-.042.336-.084.434-.084.126 0 .14.084.14.434 0 .196-.084 1.498-.098 1.848-.014.196-.056.28-.14.28-.112 0-.14-.084-.154-.252-.014-.154-.014-.21-.028-.28-.056-.434-.266-.77-1.092-.826-.462-.042-1.19-.07-2.254-.07zm11.578 7V7.178c0-.756-.154-1.036-.392-1.498-.518-.952-1.904-3.262-2.38-3.976-.532-.812-.686-.994-1.134-1.134a2.403 2.403 0 0 0-.364-.07c-.14-.014-.21-.07-.21-.154 0-.098.112-.126.28-.126.574 0 1.624.042 2.156.042.238 0 1.12-.042 2.002-.042.154 0 .266.028.266.112 0 .112-.07.14-.28.182-.378.042-.434.182-.434.294 0 .098.042.224.14.406.224.406 1.974 3.514 2.198 3.934.854-1.61 1.61-3.01 1.876-3.57.14-.294.224-.532.224-.714 0-.154-.084-.28-.504-.35-.126-.028-.238-.07-.238-.168 0-.084.084-.126.308-.126.574 0 1.05.042 1.582.042.196 0 1.344-.042 1.61-.042.168 0 .28.028.28.126 0 .112-.098.154-.28.154a2.364 2.364 0 0 0-.546.112c-.392.154-.532.392-.784.714-.476.588-2.478 4.018-2.674 4.606a4.066 4.066 0 0 0-.224 1.33v.994c0 .224 0 .798.042 1.386.028.35.056.7.574.798.252.056.532.056.77.084.168.014.224.056.224.154 0 .07-.07.126-.28.126-1.008 0-2.17-.042-2.632-.042-.406 0-1.54.042-2.17.042-.196 0-.28-.056-.28-.154 0-.07.084-.126.252-.126.224-.028.364-.028.49-.07.364-.098.448-.35.476-.756.042-.588.056-1.218.056-1.442zM278.392 11c-3.178 0-4.032-1.876-4.032-3.192 0-1.54 1.134-2.478 2.366-3.066-.588-.826-.658-1.512-.658-2.058 0-1.33 1.176-2.66 3.654-2.66.868 0 1.54.154 1.946.322.224.098.28.21.28.406 0 .308-.112 1.484-.154 1.918-.028.21-.084.28-.168.28s-.14-.084-.14-.28a1.864 1.864 0 0 0-.476-1.218 1.946 1.946 0 0 0-1.442-.644c-.532 0-1.232.252-1.232 1.288 0 1.12.868 2.016 2.114 3.43.378.434 2.114 2.128 2.24 2.254.392-.616.714-1.274.714-2.128 0-.364-.154-.56-.364-.672-.154-.098-.378-.14-.518-.154-.168-.042-.252-.084-.252-.168 0-.126.196-.126.308-.126.588 0 1.568.07 2.016.14.294.056.448.126.462.462.014.896-.616 2.254-1.596 3.29.658.588 1.498 1.246 1.862 1.484.504.336.84.518 1.344.56.224.028.28.084.28.182 0 .112-.112.154-.392.154-.182 0-2.184-.028-2.366-.028-1.26 0-1.848-.182-2.66-.798-.686.532-1.652 1.022-3.136 1.022zm.938-1.26c.616 0 1.134-.154 1.498-.378a37.337 37.337 0 0 1-3.584-3.878c-.182.21-.392.672-.392 1.456 0 1.75 1.162 2.8 2.478 2.8zM6.26 26.27v5.488c0 1.092 0 2.394.07 2.982.028.364.126.658.546.728.182.028.35.042.602.07.224.014.28.056.28.154 0 .084-.07.126-.322.126-.952 0-2.31-.042-2.534-.042-.238 0-1.596.042-2.058.042-.224 0-.322-.028-.322-.14 0-.098.112-.14.28-.14.14-.014.294-.028.448-.056.308-.056.406-.364.448-.77.056-.588.084-1.596.084-2.954V26.27c-.546 0-1.414-.014-2.114.028-.784.042-1.092.224-1.274.714-.07.154-.098.238-.126.322-.028.112-.07.224-.168.224-.126 0-.126-.112-.112-.28.056-.574.21-1.33.308-1.862.028-.21.07-.35.154-.35.098 0 .154.042.476.112.252.056 1.022.098 1.554.098h6.09c.434 0 .686-.028.882-.056.224-.042.336-.084.434-.084.126 0 .14.084.14.434 0 .196-.084 1.498-.098 1.848-.014.196-.056.28-.14.28-.112 0-.14-.084-.154-.252-.014-.154-.014-.21-.028-.28-.056-.434-.266-.77-1.092-.826-.462-.042-1.19-.07-2.254-.07zm8.806 5.488v-2.464c0-2.282-.014-2.562-.042-3.01-.028-.406-.154-.644-.504-.728-.126-.028-.322-.028-.462-.042-.182-.014-.252-.07-.252-.154s.084-.126.308-.126c.798 0 1.47.042 2.086.042.294 0 3.724-.014 3.948-.014.28 0 .616-.028.756-.056.098-.028.168-.056.224-.056.07 0 .084.056.084.126s-.028.21-.07.616c-.042.28-.07.77-.112 1.498 0 .112-.056.196-.14.196-.07 0-.126-.07-.14-.196a1.65 1.65 0 0 0-.07-.49c-.07-.322-.252-.504-.924-.56-.462-.042-1.68-.07-2.1-.07-.084 0-.112.042-.112.14v3.08c0 .098.014.168.112.168.392.014 1.526 0 2.03-.014.686-.028.868-.07 1.022-.322.084-.126.126-.182.196-.182.084 0 .084.084.084.168 0 .14-.07.644-.112 1.19-.014.322-.014 1.008-.014 1.162 0 .182-.042.266-.126.266-.098 0-.126-.098-.154-.224l-.042-.322c-.056-.406-.252-.644-.938-.686a44.544 44.544 0 0 0-1.974-.056c-.07 0-.084.07-.084.182v.966c0 .476-.014 1.302 0 1.834.014.98.21 1.204 1.764 1.204.364 0 .91-.014 1.302-.168s.56-.462.686-1.106c.028-.168.084-.252.168-.252.112 0 .126.14.126.308 0 .546-.154 1.61-.224 1.876-.098.364-.196.378-.714.378-1.932 0-2.982-.084-4.452-.084-.658 0-1.246.042-2.016.042-.252 0-.336-.042-.336-.14 0-.07.07-.14.28-.14.168-.014.308-.028.42-.056.392-.056.448-.588.476-1.47.028-.56.042-1.386.042-2.254zm17.696 4.256c-1.82 0-3.612-.308-5.082-1.54-1.372-1.176-1.764-2.618-1.764-4.116 0-.952.322-2.688 1.736-3.878 1.204-1.022 2.604-1.442 4.634-1.442.798 0 1.442.084 1.988.168.63.098.966.168 1.386.182.154.014.154.098.154.182 0 .112-.042.448-.07.924-.028.462-.014 1.288-.042 1.638-.014.21-.042.336-.168.336-.112 0-.154-.098-.168-.294-.014-.308-.07-.868-.532-1.372-.49-.518-1.47-.882-2.828-.882-.826 0-1.512.196-2.058.672-.854.742-1.232 2.044-1.232 3.542 0 2.884 1.568 4.816 3.92 4.816 1.148 0 1.862-.098 2.408-.714.196-.21.35-.518.462-.938.07-.294.112-.392.224-.392.098 0 .112.14.112.252 0 .238-.168 1.456-.308 2.128-.028.21-.126.322-.364.406-.56.224-1.512.322-2.408.322zm11.088-6.468h4.368c.042 0 .084-.028.084-.098v-.294c0-2.17 0-2.408-.028-2.856-.028-.406-.14-.644-.602-.742-.112-.014-.322-.028-.49-.042-.196 0-.266-.084-.266-.14 0-.084.07-.14.28-.14.812 0 2.072.042 2.212.042.126 0 1.736-.042 2.338-.042.21 0 .28.056.28.14 0 .07-.07.14-.21.14-.238.028-.322.028-.49.056-.364.056-.476.294-.518.742-.028.448-.028.812-.028 2.982v2.464c0 1.33 0 2.366.07 2.954.042.462.154.7.574.77.196.028.476.042.616.056.168 0 .238.07.238.14 0 .098-.112.14-.28.14-.966 0-2.38-.042-2.632-.042-.224 0-1.316.042-2.002.042-.252 0-.308-.07-.308-.154 0-.07.084-.126.266-.126.14-.014.308-.028.434-.056.336-.07.42-.336.462-.784.056-.588.084-1.47.084-2.8v-1.134c0-.056-.042-.084-.084-.084H43.85c-.042 0-.084.014-.084.084v1.456c0 1.33.014 1.904.07 2.506.042.406.168.672.588.742.294.042.434.056.588.07.154 0 .266.042.266.14 0 .07-.07.14-.28.14-.798 0-2.45-.042-2.59-.042-.126 0-1.596.042-2.044.042-.154 0-.308-.028-.308-.126s.056-.154.238-.154c.168-.014.252-.028.434-.056.336-.042.462-.406.49-.826.042-.588.07-1.568.07-2.898v-2.436c0-2.17-.014-2.492-.042-2.94-.028-.49-.182-.756-.672-.826-.168-.028-.238-.028-.392-.042-.252-.014-.28-.084-.28-.154 0-.098.154-.126.308-.126.812 0 1.89.042 2.212.042.532 0 1.708-.042 2.31-.042.252 0 .294.056.294.14 0 .07-.084.14-.252.14-.168.014-.35.028-.49.056-.378.084-.448.406-.476.812-.042.448-.042 1.022-.042 2.772v.294c0 .07.042.098.084.098zm13.594 4.214c.07-2.884.042-6.258.126-8.064.014-.42.07-.672.238-.672.112 0 .182.042.546.336.588.49 1.316 1.19 4.522 4.13 1.428 1.316 2.394 2.254 2.772 2.59l-.084-5.25c-.028-.784-.098-1.148-.658-1.246-.196-.042-.42-.056-.616-.07-.182 0-.252-.07-.252-.14 0-.098.126-.14.28-.14.56 0 1.47.042 2.03.042.308 0 1.008-.042 1.596-.042.21 0 .308.042.308.126 0 .07-.07.154-.238.154-.182.014-.252.014-.35.042-.462.056-.602.294-.644 1.162-.112 2.814-.112 5.614-.168 8.428 0 .714-.098.868-.28.868-.224 0-.658-.336-1.568-1.134-.952-.84-2.184-1.946-3.024-2.716-.784-.714-2.184-2.03-3.206-3.024l.14 4.774c.028 1.008.084 1.386.476 1.526.21.07.462.07.742.098.21.014.28.056.28.14 0 .112-.112.14-.336.14-.49 0-.938-.028-1.806-.042-.322 0-1.358.042-1.904.042-.196 0-.308-.028-.308-.14 0-.084.07-.14.266-.14.126-.014.308-.014.462-.042.546-.084.616-.434.658-1.736zm16.086-2.002v-2.464c0-2.17 0-2.576-.042-3.024-.028-.392-.182-.644-.49-.7a2.351 2.351 0 0 0-.42-.056c-.168 0-.266-.056-.266-.154 0-.084.07-.126.308-.126.56 0 1.932.042 2.044.042.126 0 1.778-.042 2.282-.042.238 0 .308.056.308.14 0 .112-.126.14-.266.14-.14.014-.224.014-.406.042-.364.07-.504.252-.532.756-.042.448-.042.812-.042 2.982v2.464c0 1.106.014 2.408.07 2.996.028.364.112.616.532.714.182.042.434.056.616.07.238 0 .294.056.294.14 0 .07-.07.14-.294.14-.952 0-2.45-.042-2.576-.042-.07 0-1.54.042-2.016.042-.224 0-.336-.028-.336-.14 0-.098.112-.14.28-.14.14-.014.28-.028.434-.056.294-.042.392-.35.434-.756.056-.588.084-1.596.084-2.968zm14.784 4.256c-1.82 0-3.612-.308-5.082-1.54-1.372-1.176-1.764-2.618-1.764-4.116 0-.952.322-2.688 1.736-3.878 1.204-1.022 2.604-1.442 4.634-1.442.798 0 1.442.084 1.988.168.63.098.966.168 1.386.182.154.014.154.098.154.182 0 .112-.042.448-.07.924-.028.462-.014 1.288-.042 1.638-.014.21-.042.336-.168.336-.112 0-.154-.098-.168-.294-.014-.308-.07-.868-.532-1.372-.49-.518-1.47-.882-2.828-.882-.826 0-1.512.196-2.058.672-.854.742-1.232 2.044-1.232 3.542 0 2.884 1.568 4.816 3.92 4.816 1.148 0 1.862-.098 2.408-.714.196-.21.35-.518.462-.938.07-.294.112-.392.224-.392.098 0 .112.14.112.252 0 .238-.168 1.456-.308 2.128-.028.21-.126.322-.364.406-.56.224-1.512.322-2.408.322zm13.3-3.094h-3.206c-.07 0-.098.028-.126.098l-.434 1.148c-.14.364-.224.728-.224.896 0 .266.126.392.42.42.154.028.378.042.49.056.21 0 .252.07.252.14 0 .112-.112.14-.294.14-.63 0-1.106-.042-1.848-.042-.154 0-1.078.042-1.778.042-.196 0-.28-.056-.28-.14 0-.112.098-.14.266-.14.168-.014.308-.028.448-.056.49-.098.77-.532 1.064-1.204l3.738-8.456c.266-.602.42-.812.574-.812.14 0 .266.196.504.7.364.784 2.716 6.146 3.668 8.274.476 1.092.784 1.428 1.274 1.498.154.042.322.042.448.056.182 0 .266.056.266.14 0 .098-.098.14-.364.14-1.372 0-2.968-.028-3.864-.042-.224 0-.308-.042-.308-.126s.07-.14.196-.168c.154-.028.21-.126.168-.252l-.938-2.226c-.014-.056-.07-.084-.112-.084zm-2.8-1.12h2.394c.084 0 .084-.042.07-.07l-1.232-2.996c-.042-.098-.07-.07-.098 0l-1.19 2.996c-.014.042.014.07.056.07zm14.462-2.366v2.338c0 1.414-.042 2.422.196 2.716.196.266.462.336 1.624.336.77 0 1.218-.014 1.61-.224.336-.154.574-.518.728-1.176.042-.154.07-.266.182-.266.098 0 .112.07.112.266 0 .322-.154 1.652-.294 2.058-.112.364-.224.378-.784.378-1.932 0-3.234-.084-4.718-.084-.658 0-1.414.042-2.184.042-.196 0-.308-.028-.308-.154 0-.084.084-.126.28-.126.168-.014.322-.028.476-.056.504-.084.518-.336.56-1.456.028-.56.042-1.4.042-2.268v-2.464c0-2.282-.014-2.534-.042-2.982-.028-.392-.126-.63-.476-.728-.126-.042-.336-.056-.546-.07-.154 0-.294-.028-.294-.14s.14-.14.42-.14c.798 0 1.526.042 2.072.042.126 0 1.862-.042 2.366-.042.252 0 .336.042.336.126 0 .126-.14.154-.336.154-.14.014-.28.014-.476.056-.378.07-.476.336-.504.826-.028.448-.042.728-.042 3.038zm21.728 6.58c-1.82 0-3.612-.308-5.082-1.54-1.372-1.176-1.764-2.618-1.764-4.116 0-.952.322-2.688 1.736-3.878 1.204-1.022 2.604-1.442 4.634-1.442.798 0 1.442.084 1.988.168.63.098.966.168 1.386.182.154.014.154.098.154.182 0 .112-.042.448-.07.924-.028.462-.014 1.288-.042 1.638-.014.21-.042.336-.168.336-.112 0-.154-.098-.168-.294-.014-.308-.07-.868-.532-1.372-.49-.518-1.47-.882-2.828-.882-.826 0-1.512.196-2.058.672-.854.742-1.232 2.044-1.232 3.542 0 2.884 1.568 4.816 3.92 4.816 1.148 0 1.862-.098 2.408-.714.196-.21.35-.518.462-.938.07-.294.112-.392.224-.392.098 0 .112.14.112.252 0 .238-.168 1.456-.308 2.128-.028.21-.126.322-.364.406-.56.224-1.512.322-2.408.322zm13.258 0c-4.13 0-5.894-2.968-5.894-5.446 0-2.8 1.876-5.53 5.992-5.53 3.556 0 5.782 2.38 5.782 5.222 0 3.262-2.212 5.754-5.88 5.754zm.42-.896c.868 0 2.66-.378 2.66-4.242 0-2.324-.966-4.97-3.444-4.97-1.288 0-2.73.714-2.73 4.032 0 2.646 1.106 5.18 3.514 5.18zm13.398-5.684v2.338c0 1.414-.042 2.422.196 2.716.196.266.462.336 1.624.336.77 0 1.218-.014 1.61-.224.336-.154.574-.518.728-1.176.042-.154.07-.266.182-.266.098 0 .112.07.112.266 0 .322-.154 1.652-.294 2.058-.112.364-.224.378-.784.378-1.932 0-3.234-.084-4.718-.084-.658 0-1.414.042-2.184.042-.196 0-.308-.028-.308-.154 0-.084.084-.126.28-.126.168-.014.322-.028.476-.056.504-.084.518-.336.56-1.456.028-.56.042-1.4.042-2.268v-2.464c0-2.282-.014-2.534-.042-2.982-.028-.392-.126-.63-.476-.728-.126-.042-.336-.056-.546-.07-.154 0-.294-.028-.294-.14s.14-.14.42-.14c.798 0 1.526.042 2.072.042.126 0 1.862-.042 2.366-.042.252 0 .336.042.336.126 0 .126-.14.154-.336.154-.14.014-.28.014-.476.056-.378.07-.476.336-.504.826-.028.448-.042.728-.042 3.038zm11.844 0v2.338c0 1.414-.042 2.422.196 2.716.196.266.462.336 1.624.336.77 0 1.218-.014 1.61-.224.336-.154.574-.518.728-1.176.042-.154.07-.266.182-.266.098 0 .112.07.112.266 0 .322-.154 1.652-.294 2.058-.112.364-.224.378-.784.378-1.932 0-3.234-.084-4.718-.084-.658 0-1.414.042-2.184.042-.196 0-.308-.028-.308-.154 0-.084.084-.126.28-.126.168-.014.322-.028.476-.056.504-.084.518-.336.56-1.456.028-.56.042-1.4.042-2.268v-2.464c0-2.282-.014-2.534-.042-2.982-.028-.392-.126-.63-.476-.728-.126-.042-.336-.056-.546-.07-.154 0-.294-.028-.294-.14s.14-.14.42-.14c.798 0 1.526.042 2.072.042.126 0 1.862-.042 2.366-.042.252 0 .336.042.336.126 0 .126-.14.154-.336.154-.14.014-.28.014-.476.056-.378.07-.476.336-.504.826-.028.448-.042.728-.042 3.038zm9.366 2.324v-2.464c0-2.282-.014-2.562-.042-3.01-.028-.406-.154-.644-.504-.728-.126-.028-.322-.028-.462-.042-.182-.014-.252-.07-.252-.154s.084-.126.308-.126c.798 0 1.47.042 2.086.042.294 0 3.724-.014 3.948-.014.28 0 .616-.028.756-.056.098-.028.168-.056.224-.056.07 0 .084.056.084.126s-.028.21-.07.616c-.042.28-.07.77-.112 1.498 0 .112-.056.196-.14.196-.07 0-.126-.07-.14-.196a1.65 1.65 0 0 0-.07-.49c-.07-.322-.252-.504-.924-.56-.462-.042-1.68-.07-2.1-.07-.084 0-.112.042-.112.14v3.08c0 .098.014.168.112.168.392.014 1.526 0 2.03-.014.686-.028.868-.07 1.022-.322.084-.126.126-.182.196-.182.084 0 .084.084.084.168 0 .14-.07.644-.112 1.19-.014.322-.014 1.008-.014 1.162 0 .182-.042.266-.126.266-.098 0-.126-.098-.154-.224l-.042-.322c-.056-.406-.252-.644-.938-.686a44.544 44.544 0 0 0-1.974-.056c-.07 0-.084.07-.084.182v.966c0 .476-.014 1.302 0 1.834.014.98.21 1.204 1.764 1.204.364 0 .91-.014 1.302-.168s.56-.462.686-1.106c.028-.168.084-.252.168-.252.112 0 .126.14.126.308 0 .546-.154 1.61-.224 1.876-.098.364-.196.378-.714.378-1.932 0-2.982-.084-4.452-.084-.658 0-1.246.042-2.016.042-.252 0-.336-.042-.336-.14 0-.07.07-.14.28-.14.168-.014.308-.028.42-.056.392-.056.448-.588.476-1.47.028-.56.042-1.386.042-2.254zm21.224 1.708v1.008c0 .826-.028.91-.28 1.008-.742.294-2.17.532-3.43.532-3.934 0-6.664-1.764-6.664-5.488 0-2.338 1.218-3.822 2.52-4.564 1.442-.854 2.954-.924 4.018-.924.854 0 1.666.098 2.268.196.476.056.938.154 1.344.168.126 0 .154.056.14.182-.028.14-.154.714-.154 2.576 0 .224-.056.294-.154.294s-.154-.112-.168-.224c-.028-.21-.028-.364-.168-.7-.266-.952-1.512-1.624-3.458-1.624-1.036 0-1.876.294-2.506 1.008-.546.616-.882 1.652-.882 3.024 0 2.506 1.204 5.18 4.144 5.18.196 0 .574-.014.784-.168.112-.084.168-.21.168-.378v-.854c0-.574 0-1.12-.014-1.638 0-.798-.182-1.092-.658-1.162-.182-.028-.364-.042-.602-.07-.112 0-.224-.056-.224-.14s.07-.14.294-.14c.91 0 1.988.042 2.366.042.504 0 1.414-.042 2.17-.042.21 0 .322.028.322.14 0 .098-.084.126-.224.14-.056 0-.238.028-.378.042-.336.07-.49.224-.532.714a34.35 34.35 0 0 0-.042 1.862zm6.132-1.708v-2.464c0-2.282-.014-2.562-.042-3.01-.028-.406-.154-.644-.504-.728-.126-.028-.322-.028-.462-.042-.182-.014-.252-.07-.252-.154s.084-.126.308-.126c.798 0 1.47.042 2.086.042.294 0 3.724-.014 3.948-.014.28 0 .616-.028.756-.056.098-.028.168-.056.224-.056.07 0 .084.056.084.126s-.028.21-.07.616c-.042.28-.07.77-.112 1.498 0 .112-.056.196-.14.196-.07 0-.126-.07-.14-.196a1.65 1.65 0 0 0-.07-.49c-.07-.322-.252-.504-.924-.56-.462-.042-1.68-.07-2.1-.07-.084 0-.112.042-.112.14v3.08c0 .098.014.168.112.168.392.014 1.526 0 2.03-.014.686-.028.868-.07 1.022-.322.084-.126.126-.182.196-.182.084 0 .084.084.084.168 0 .14-.07.644-.112 1.19-.014.322-.014 1.008-.014 1.162 0 .182-.042.266-.126.266-.098 0-.126-.098-.154-.224l-.042-.322c-.056-.406-.252-.644-.938-.686a44.544 44.544 0 0 0-1.974-.056c-.07 0-.084.07-.084.182v.966c0 .476-.014 1.302 0 1.834.014.98.21 1.204 1.764 1.204.364 0 .91-.014 1.302-.168s.56-.462.686-1.106c.028-.168.084-.252.168-.252.112 0 .126.14.126.308 0 .546-.154 1.61-.224 1.876-.098.364-.196.378-.714.378-1.932 0-2.982-.084-4.452-.084-.658 0-1.246.042-2.016.042-.252 0-.336-.042-.336-.14 0-.07.07-.14.28-.14.168-.014.308-.028.42-.056.392-.056.448-.588.476-1.47.028-.56.042-1.386.042-2.254zm20.174 4.256c-1.05 0-1.792-.14-2.338-.392-.238-.098-.308-.28-.308-.56 0-1.134.042-1.666.084-2.058.028-.252.084-.336.168-.336.098 0 .112.126.126.238.014.14.028.266.07.434.238 1.148 1.288 1.806 2.38 1.806 1.33 0 1.736-.686 1.736-1.288 0-.588-.112-1.078-1.302-1.89l-.868-.602c-1.708-1.204-2.184-2.184-2.184-3.416 0-1.61 1.33-2.912 3.57-2.912a7.74 7.74 0 0 1 2.296.308c.14.042.182.084.182.196-.028.448-.056.728-.056 1.974 0 .252-.042.35-.154.35-.07 0-.126-.042-.154-.266a1.953 1.953 0 0 0-.252-.812c-.266-.448-.91-.924-1.918-.924-1.148 0-1.568.644-1.568 1.288 0 .476.168 1.022 1.12 1.666l.714.476c1.96 1.302 2.576 2.17 2.576 3.584 0 .966-.434 1.918-1.484 2.534-.812.49-1.708.602-2.436.602zm11.606-2.744v-1.078c0-.756-.154-1.036-.392-1.498-.518-.952-1.904-3.262-2.38-3.976-.532-.812-.686-.994-1.134-1.134a2.403 2.403 0 0 0-.364-.07c-.14-.014-.21-.07-.21-.154 0-.098.112-.126.28-.126.574 0 1.624.042 2.156.042.238 0 1.12-.042 2.002-.042.154 0 .266.028.266.112 0 .112-.07.14-.28.182-.378.042-.434.182-.434.294 0 .098.042.224.14.406.224.406 1.974 3.514 2.198 3.934.854-1.61 1.61-3.01 1.876-3.57.14-.294.224-.532.224-.714 0-.154-.084-.28-.504-.35-.126-.028-.238-.07-.238-.168 0-.084.084-.126.308-.126.574 0 1.05.042 1.582.042.196 0 1.344-.042 1.61-.042.168 0 .28.028.28.126 0 .112-.098.154-.28.154a2.364 2.364 0 0 0-.546.112c-.392.154-.532.392-.784.714-.476.588-2.478 4.018-2.674 4.606a4.066 4.066 0 0 0-.224 1.33v.994c0 .224 0 .798.042 1.386.028.35.056.7.574.798.252.056.532.056.77.084.168.014.224.056.224.154 0 .07-.07.126-.28.126-1.008 0-2.17-.042-2.632-.042-.406 0-1.54.042-2.17.042-.196 0-.28-.056-.28-.154 0-.07.084-.126.252-.126.224-.028.364-.028.49-.07.364-.098.448-.35.476-.756.042-.588.056-1.218.056-1.442zm12.53 2.744c-1.05 0-1.792-.14-2.338-.392-.238-.098-.308-.28-.308-.56 0-1.134.042-1.666.084-2.058.028-.252.084-.336.168-.336.098 0 .112.126.126.238.014.14.028.266.07.434.238 1.148 1.288 1.806 2.38 1.806 1.33 0 1.736-.686 1.736-1.288 0-.588-.112-1.078-1.302-1.89l-.868-.602c-1.708-1.204-2.184-2.184-2.184-3.416 0-1.61 1.33-2.912 3.57-2.912a7.74 7.74 0 0 1 2.296.308c.14.042.182.084.182.196-.028.448-.056.728-.056 1.974 0 .252-.042.35-.154.35-.07 0-.126-.042-.154-.266a1.953 1.953 0 0 0-.252-.812c-.266-.448-.91-.924-1.918-.924-1.148 0-1.568.644-1.568 1.288 0 .476.168 1.022 1.12 1.666l.714.476c1.96 1.302 2.576 2.17 2.576 3.584 0 .966-.434 1.918-1.484 2.534-.812.49-1.708.602-2.436.602zm13.818-9.744v5.488c0 1.092 0 2.394.07 2.982.028.364.126.658.546.728.182.028.35.042.602.07.224.014.28.056.28.154 0 .084-.07.126-.322.126-.952 0-2.31-.042-2.534-.042-.238 0-1.596.042-2.058.042-.224 0-.322-.028-.322-.14 0-.098.112-.14.28-.14.14-.014.294-.028.448-.056.308-.056.406-.364.448-.77.056-.588.084-1.596.084-2.954V26.27c-.546 0-1.414-.014-2.114.028-.784.042-1.092.224-1.274.714-.07.154-.098.238-.126.322-.028.112-.07.224-.168.224-.126 0-.126-.112-.112-.28.056-.574.21-1.33.308-1.862.028-.21.07-.35.154-.35.098 0 .154.042.476.112.252.056 1.022.098 1.554.098h6.09c.434 0 .686-.028.882-.056.224-.042.336-.084.434-.084.126 0 .14.084.14.434 0 .196-.084 1.498-.098 1.848-.014.196-.056.28-.14.28-.112 0-.14-.084-.154-.252-.014-.154-.014-.21-.028-.28-.056-.434-.266-.77-1.092-.826-.462-.042-1.19-.07-2.254-.07zm8.806 5.488v-2.464c0-2.282-.014-2.562-.042-3.01-.028-.406-.154-.644-.504-.728-.126-.028-.322-.028-.462-.042-.182-.014-.252-.07-.252-.154s.084-.126.308-.126c.798 0 1.47.042 2.086.042.294 0 3.724-.014 3.948-.014.28 0 .616-.028.756-.056.098-.028.168-.056.224-.056.07 0 .084.056.084.126s-.028.21-.07.616c-.042.28-.07.77-.112 1.498 0 .112-.056.196-.14.196-.07 0-.126-.07-.14-.196a1.65 1.65 0 0 0-.07-.49c-.07-.322-.252-.504-.924-.56-.462-.042-1.68-.07-2.1-.07-.084 0-.112.042-.112.14v3.08c0 .098.014.168.112.168.392.014 1.526 0 2.03-.014.686-.028.868-.07 1.022-.322.084-.126.126-.182.196-.182.084 0 .084.084.084.168 0 .14-.07.644-.112 1.19-.014.322-.014 1.008-.014 1.162 0 .182-.042.266-.126.266-.098 0-.126-.098-.154-.224l-.042-.322c-.056-.406-.252-.644-.938-.686a44.544 44.544 0 0 0-1.974-.056c-.07 0-.084.07-.084.182v.966c0 .476-.014 1.302 0 1.834.014.98.21 1.204 1.764 1.204.364 0 .91-.014 1.302-.168s.56-.462.686-1.106c.028-.168.084-.252.168-.252.112 0 .126.14.126.308 0 .546-.154 1.61-.224 1.876-.098.364-.196.378-.714.378-1.932 0-2.982-.084-4.452-.084-.658 0-1.246.042-2.016.042-.252 0-.336-.042-.336-.14 0-.07.07-.14.28-.14.168-.014.308-.028.42-.056.392-.056.448-.588.476-1.47.028-.56.042-1.386.042-2.254zm22.274-6.202l1.148 8.456c.112.91.252 1.26.714 1.4.28.084.616.112.798.126.182 0 .266.042.266.14 0 .112-.112.14-.336.14-1.162 0-2.296 0-3.892-.084-.266-.014-.322-.098-.322-.168 0-.056.056-.112.154-.14.224-.084.238-.168.182-.798l-.504-5.012-2.884 5.404c-.378.714-.462.798-.574.798-.154 0-.238-.14-.63-.756-.49-.784-1.344-2.38-1.876-3.276-.238-.406-.854-1.554-1.12-2.03l-.406 3.948c-.056.602-.056.91-.056 1.12 0 .406.14.574.49.644.21.042.336.056.518.07.21 0 .252.042.252.126 0 .112-.056.154-.28.154-.616 0-1.386-.042-1.806-.042-.434 0-1.092.042-1.61.042-.14 0-.308 0-.308-.14 0-.084.084-.14.28-.14.112-.014.266-.014.42-.042.406-.084.546-.406.686-1.33l1.274-8.61c.056-.42.154-.546.294-.546.154 0 .252.14.546.574l4.004 6.706 3.836-6.776c.224-.364.336-.504.476-.504s.224.196.266.546z"/></svg>