<svg xmlns="http://www.w3.org/2000/svg" viewBox="0 0 712.25 205.18"><defs><style>.\30 607a93c-cc38-4a3a-bf66-7a987097f4ac{fill:#fff;}</style></defs><title>Maysville Community and Technical College</title><g id="03f26ad3-1e59-4d1a-ae1d-432571e99be8" data-name="Layer 2"><g id="369c6330-8b59-4410-be90-9cffd4e9fb6b" data-name="Layer 1"><path class="0607a93c-cc38-4a3a-bf66-7a987097f4ac" d="M32.28,4.56A5.45,5.45,0,0,1,37.41,0H42a6.3,6.3,0,0,1,4.85,2.85L112.93,126h.57L179.62,2.85A6.28,6.28,0,0,1,184.46,0H189a5.44,5.44,0,0,1,5.13,4.56l32.21,191.51a5.23,5.23,0,0,1-5.42,6.26H187.31a5.79,5.79,0,0,1-5.41-4.56l-12.83-88.05h-.57l-47.87,92.33a6.67,6.67,0,0,1-4.85,3.13h-5.13a6.17,6.17,0,0,1-4.84-3.13L57.65,109.72h-.57L44.54,197.77a5.55,5.55,0,0,1-5.42,4.56H5.49a5.21,5.21,0,0,1-5.41-6.26Z"/><path class="0607a93c-cc38-4a3a-bf66-7a987097f4ac" d="M326.4,0c28.5,0,49.59,8.83,69,26.5a5.29,5.29,0,0,1,.29,8L373.42,57.56a5,5,0,0,1-7.12,0A58.26,58.26,0,0,0,327.82,43C295.62,43,272,69.82,272,101.74c0,31.63,23.94,57.85,56.14,57.85,13.39,0,27.93-4.85,38.19-13.68,2-1.71,5.69-1.71,7.41.28l22.22,23.66c2,2,1.71,5.7-.28,7.69-19.38,18.81-43.89,27.64-69.25,27.64-57,0-102.88-45.31-102.88-102.3A102.65,102.65,0,0,1,326.4,0Z"/><path class="0607a93c-cc38-4a3a-bf66-7a987097f4ac" d="M453.51,44.74H412.76a5.41,5.41,0,0,1-5.42-5.41V8.26a5.41,5.41,0,0,1,5.42-5.41H539.29a5.41,5.41,0,0,1,5.41,5.41V39.33a5.41,5.41,0,0,1-5.41,5.41H498.54V196.92a5.61,5.61,0,0,1-5.42,5.41H458.93a5.61,5.61,0,0,1-5.42-5.41Z"/><path class="0607a93c-cc38-4a3a-bf66-7a987097f4ac" d="M641.32,0c28.5,0,49.59,8.83,69,26.5a5.3,5.3,0,0,1,.28,8L688.35,57.56a5,5,0,0,1-7.13,0A58.23,58.23,0,0,0,642.75,43c-32.2,0-55.86,26.79-55.86,58.71,0,31.63,23.94,57.85,56.15,57.85,13.39,0,27.92-4.85,38.18-13.68,2-1.71,5.7-1.71,7.41.28l22.23,23.66c2,2,1.71,5.7-.29,7.69-19.38,18.81-43.88,27.64-69.25,27.64-57,0-102.87-45.31-102.87-102.3A102.65,102.65,0,0,1,641.32,0Z"/></g></g></svg>
