<svg xmlns="http://www.w3.org/2000/svg" viewBox="0 0 188.146 43.189"><path d="M175.646 18.25h2.82v-2.308c0-1.634-.09-2.69-.27-3.166-.17-.474-.53-.712-1.07-.712-.67 0-1.08.202-1.24.606s-.24 1.494-.24 3.272zm10.4 17.48a8.568 8.568 0 0 1-3.46 2.686c-1.4.598-3.15.896-5.26.896-2.04 0-3.84-.294-5.41-.884-1.56-.59-2.78-1.398-3.65-2.428-.87-1.026-1.47-2.158-1.8-3.394-.34-1.234-.51-3.032-.51-5.39v-9.254c0-2.774.38-4.962 1.13-6.564.75-1.6 1.98-2.827 3.68-3.68 1.71-.854 3.68-1.28 5.89-1.28 2.72 0 4.95.514 6.72 1.542 1.76 1.029 3 2.392 3.71 4.088.71 1.698 1.06 4.084 1.06 7.162v4.208h-12.5v6.858c0 1.434.1 2.356.31 2.77s.6.622 1.18.622c.73 0 1.21-.276 1.46-.824.24-.55.37-1.612.37-3.186V25.5h9.18v2.342c0 1.96-.12 3.466-.37 4.516-.25 1.052-.83 2.176-1.73 3.372zm-33.2 3.02h9.94V0h-9.94zm-13.42 0h9.94V0h-9.94zm-13.42 0h9.94V7h-9.94zm0-33.75h9.94V0h-9.94zm-10.97 12.726c-.54 6.6-.91 10.766-1.1 12.498L111.216 7h-8.62l4.87 31.75h12.63l4.5-31.75-8.63.001c-.34 3.468-.65 7.042-.93 10.726zm-14.39 6.36c-.87-1.21-2.72-2.502-5.52-3.872-2.11-1.036-3.5-1.824-4.18-2.366-.67-.542-1.08-1.04-1.22-1.494-.13-.456-.2-1.168-.2-2.14 0-.718.14-1.254.41-1.614.27-.358.67-.536 1.21-.536.67 0 1.09.196 1.26.588.16.394.25 1.328.25 2.804v1.732h8.56V15.34c0-1.6-.09-2.776-.25-3.526-.17-.752-.65-1.57-1.44-2.448-.78-.881-1.92-1.588-3.39-2.125-1.47-.535-3.26-.803-5.37-.803-2.12 0-3.976.327-5.578.98s-2.737 1.58-3.406 2.784c-.67 1.202-1.004 3.072-1.004 5.606 0 1.784.309 3.328.931 4.626.621 1.298 2.348 2.744 5.182 4.338 3.375 1.88 5.245 3.012 5.615 3.394.35.384.52 1.33.52 2.844 0 1.1-.13 1.82-.4 2.164-.28.342-.75.514-1.44.514-.63 0-1.06-.256-1.27-.77-.22-.512-.33-1.624-.33-3.338v-2.016h-8.558v1.534c0 2.654.326 4.636.98 5.948.655 1.31 1.855 2.35 3.602 3.116 1.746.766 3.846 1.15 6.306 1.15 2.22 0 4.11-.354 5.68-1.064 1.57-.708 2.69-1.72 3.36-3.034.67-1.316 1.01-3.264 1.01-5.846 0-2.31-.44-4.07-1.32-5.282zm-26.231 16.59c.684-.862 1.173-1.952 1.468-3.278.294-1.322.66-3.8 1.095-7.432L79.736 7h-8.719L69.47 28.47 66.298 7l-8.796.001 5.292 26.502c.398 1.958.598 3.064.598 3.318 0 .526-.214.864-.641 1.016-.428.15-1.386.226-2.874.226v5.126h5.848c2.674 0 4.619-.206 5.837-.61 1.217-.408 2.168-1.04 2.853-1.902zM43.498 29.8c0 1.638.105 2.694.316 3.172s.629.716 1.254.716c.594 0 .98-.188 1.16-.56.18-.374.27-1.356.27-2.948v-6.514c-1.516 1.132-2.395 2.076-2.637 2.84s-.363 1.862-.363 3.294zm-9.063 1.866v-2.604c0-2.374.372-3.99 1.118-4.85.745-.86 2.593-1.864 5.544-3.012 3.156-1.242 4.845-2.078 5.068-2.508.221-.432.333-1.308.333-2.632 0-1.66-.121-2.742-.364-3.244-.242-.502-.644-.752-1.207-.752-.64 0-1.039.21-1.195.634-.156.422-.234 1.52-.234 3.288v3.326h-9.063v-2.13c0-2.456.282-4.352.848-5.684.564-1.332 1.699-2.507 3.402-3.528 1.703-1.022 3.915-1.532 6.637-1.532 3.263 0 5.722.579 7.377 1.735s2.65 2.573 2.984 4.255c.334 1.684.502 5.146.502 10.392v15.93h-9.437v-2.848c-.587 1.138-1.344 1.99-2.271 2.558s-2.032.852-3.315.852a8.092 8.092 0 0 1-4.623-1.42c-1.403-.948-2.104-3.024-2.104-6.226zM8.843 13.152L12.5 38.75h6.25l3.468-26.16.032 26.16h8.812V0H17.953l-2.297 18.095-1.421-9.846c-.414-3.16-.811-5.91-1.189-8.248H0v38.75h8.812l.031-25.598z" fill-rule="evenodd"/></svg>